<?xml version="1.0" standalone="no"?>
<!DOCTYPE svg PUBLIC "-//W3C//DTD SVG 20010904//EN"
 "http://www.w3.org/TR/2001/REC-SVG-20010904/DTD/svg10.dtd">
<svg version="1.0" xmlns="http://www.w3.org/2000/svg"
 width="720.000000pt" height="1280.000000pt" viewBox="0 0 720.000000 1280.000000"
 preserveAspectRatio="xMidYMid meet">

<g transform="translate(0.000000,1280.000000) scale(0.100000,-0.100000)"
fill="#000000" stroke="none">
<path d="M1510 12785 c7 -8 16 -15 21 -15 5 0 9 7 9 15 0 9 -9 15 -21 15 -18
0 -19 -2 -9 -15z"/>
<path d="M1576 12789 c3 -5 15 -9 27 -9 13 0 40 -9 62 -20 38 -19 115 -29 86
-11 -9 6 -10 11 -2 15 6 4 21 0 33 -8 12 -9 36 -16 53 -16 22 0 26 3 15 10
-12 7 -11 12 5 30 l18 20 -151 -1 c-83 -1 -149 -6 -146 -10z"/>
<path d="M1902 12788 c-16 -16 -15 -28 3 -28 8 0 15 -4 15 -10 0 -5 18 -10 40
-10 33 0 40 3 40 20 0 11 4 20 10 20 5 0 7 -6 4 -14 -3 -7 6 -26 20 -41 43
-47 28 -60 -43 -38 -24 7 -59 13 -78 13 -26 0 -33 -4 -33 -20 0 -23 9 -25 45
-8 23 10 28 10 36 -5 8 -13 14 -14 34 -5 33 15 43 3 19 -23 -29 -32 -53 -42
-69 -29 -10 8 -19 8 -34 0 -34 -18 -150 -4 -177 21 -36 34 -47 21 -48 -54 -1
-39 3 -67 9 -67 6 0 44 7 86 15 87 16 209 22 227 11 18 -11 14 -41 -8 -61 -23
-21 -26 -35 -6 -35 16 0 26 -30 26 -84 0 -32 3 -37 18 -31 19 7 22 8 41 6 7 0
11 -7 7 -16 -4 -10 1 -15 16 -15 l22 0 -23 -21 c-18 -17 -22 -30 -19 -61 3
-34 0 -43 -20 -56 -23 -15 -26 -15 -44 8 -14 17 -18 36 -16 74 2 41 -3 59 -25
94 -31 47 -33 48 -66 25 -38 -26 -105 -20 -148 14 -76 61 -75 60 -73 27 2 -16
0 -36 -4 -44 -7 -17 -3 -96 5 -105 3 -3 3 -25 -1 -50 -4 -24 -3 -50 1 -57 8
-12 13 -178 10 -290 -1 -30 3 -48 10 -48 6 0 9 7 6 14 -4 9 2 17 14 21 31 10
32 2 4 -39 -22 -32 -24 -43 -18 -96 5 -53 8 -60 28 -60 18 0 26 -11 44 -62 12
-35 28 -78 36 -96 8 -18 15 -38 15 -45 0 -7 12 -30 26 -51 l26 -38 -37 -34
c-21 -19 -36 -36 -34 -38 2 -2 24 0 49 4 81 16 88 14 87 -24 -2 -57 41 -98
134 -129 18 -6 36 -86 21 -96 -16 -12 -42 -56 -42 -73 0 -23 39 -15 63 13 20
25 22 24 31 -13 4 -19 2 -30 -10 -36 -9 -5 -14 -16 -13 -25 3 -12 8 -14 19 -7
10 6 14 24 13 55 -1 25 3 45 8 45 5 0 9 14 9 30 0 23 -4 30 -20 30 -13 0 -20
7 -20 20 0 21 24 28 35 10 13 -21 23 2 18 42 -5 36 -4 41 11 35 17 -7 46 13
46 31 0 5 -7 23 -15 38 -15 30 -20 74 -8 74 3 0 15 -8 25 -17 19 -17 21 -16
48 16 36 41 63 35 88 -17 14 -30 23 -38 51 -40 l34 -3 -7 77 c-8 90 -10 94
-40 94 -43 0 -47 20 -11 57 19 19 32 40 30 46 -2 7 -6 25 -10 40 l-6 28 -17
-21 c-19 -24 -42 -28 -209 -37 -72 -3 -113 -2 -113 4 0 12 74 42 126 50 35 6
37 5 31 -16 -5 -20 -3 -22 16 -17 12 3 28 6 35 6 6 0 12 5 12 11 0 6 -6 9 -14
6 -18 -7 -42 18 -26 28 13 8 12 16 -5 39 -14 18 -15 18 -40 -2 -30 -24 -70
-19 -59 7 3 9 7 22 7 29 0 6 12 12 26 12 14 0 40 9 56 20 l30 20 -41 -6 c-26
-4 -44 -2 -48 5 -11 18 -32 13 -64 -14 -35 -30 -48 -31 -119 -7 -43 14 -53 21
-53 39 0 17 7 24 28 29 15 3 40 10 56 15 16 5 55 9 87 9 51 0 59 -3 59 -18 0
-30 10 -31 37 -6 32 30 41 30 77 1 l29 -24 -22 -22 c-25 -25 -22 -36 7 -26 20
6 39 67 33 106 -1 13 28 37 33 27 10 -20 26 -80 26 -100 0 -25 -27 -58 -47
-58 -17 0 -23 -28 -8 -34 7 -2 16 2 19 10 3 9 20 14 46 14 22 0 40 4 40 8 0 5
11 22 25 38 14 16 25 32 25 36 0 3 13 11 29 16 21 7 31 19 36 42 9 40 -1 51
-14 16 -12 -29 -23 -33 -41 -11 -9 11 -9 21 1 45 8 16 18 30 24 30 18 -1 45
-27 45 -44 0 -10 8 -16 22 -16 l21 0 -21 23 c-12 13 -22 28 -22 35 0 18 -32
29 -77 26 -49 -2 -60 20 -18 36 27 10 32 29 13 48 -21 21 -2 23 22 2 30 -26
46 -25 66 5 14 22 14 26 1 40 -18 17 -32 54 -24 62 3 2 14 0 25 -6 14 -7 18
-17 15 -31 -11 -40 17 -21 110 79 l28 30 -28 3 c-24 3 -28 8 -31 39 -3 34 0
37 63 74 36 21 67 41 68 44 2 3 1 22 -2 41 l-6 35 -23 -32 c-27 -37 -53 -48
-82 -33 -26 14 -26 46 0 60 23 12 18 32 -6 23 -21 -8 -55 -78 -47 -98 4 -13 1
-16 -13 -13 -45 8 -40 128 5 128 11 0 25 9 31 20 6 11 9 20 7 20 -15 0 -96
-42 -99 -52 -3 -9 -18 -9 -61 1 -33 8 -80 12 -116 8 -49 -4 -63 -2 -79 13 -11
11 -36 26 -56 34 -19 8 -45 24 -58 35 -14 14 -35 21 -59 21 -21 0 -45 3 -54 6
-40 16 -41 107 -2 118 20 5 20 6 3 25 -20 23 -14 41 15 41 17 0 24 -11 20 -33
-1 -5 3 -6 9 -2 5 3 10 13 10 21 0 8 6 14 14 14 17 0 28 24 20 45 -5 12 -31
15 -148 15 -97 0 -146 -4 -154 -12z m271 -307 c-8 -13 -9 -29 -4 -49 5 -16 5
-35 0 -43 -7 -11 -9 -9 -9 7 0 11 -9 29 -20 39 -25 23 -25 28 3 59 25 29 50
18 30 -13z m112 -21 c3 -5 -1 -10 -9 -10 -9 0 -16 5 -16 10 0 6 4 10 9 10 6 0
13 -4 16 -10z m-6 -108 c13 -10 25 -26 27 -36 1 -10 12 -27 23 -37 27 -25 28
-59 1 -59 -10 0 -23 6 -27 13 -15 22 -58 55 -83 62 l-25 8 25 -21 c21 -17 22
-22 11 -35 -7 -9 -10 -25 -6 -37 5 -15 2 -20 -12 -20 -25 0 -45 35 -37 66 5
17 2 29 -7 35 -8 4 -14 12 -15 16 0 4 -4 16 -9 26 -20 46 78 59 134 19z m99
-46 c2 -16 15 -38 28 -48 29 -24 32 -63 4 -78 -11 -6 -20 -17 -20 -25 0 -24
-19 -17 -32 10 -8 19 -9 28 0 37 16 16 3 70 -21 90 -18 14 -19 18 -7 32 20 25
44 15 48 -18z m148 -61 c39 -18 56 -38 48 -59 -4 -11 2 -19 20 -26 38 -14 32
-26 -16 -27 -50 -2 -78 11 -78 37 0 10 -4 21 -10 25 -5 3 -7 12 -4 19 3 7 -3
16 -13 20 -15 6 -15 8 -3 16 13 8 12 10 -2 10 -10 0 -18 7 -18 16 0 15 2 15
23 0 12 -9 36 -23 53 -31z m-315 -87 c7 -13 18 -27 25 -31 8 -4 14 -15 14 -23
0 -11 6 -13 21 -9 16 5 28 -1 50 -27 15 -18 28 -39 29 -45 0 -7 7 -13 15 -13
8 0 15 -5 15 -12 0 -19 -42 -58 -62 -58 -21 0 -24 20 -5 39 10 10 7 10 -14 2
-49 -18 -65 -6 -60 47 3 41 2 45 -12 34 -13 -11 -18 -8 -30 20 -20 43 -28 83
-20 92 12 11 22 6 34 -16z m179 -103 c0 -14 -4 -25 -10 -25 -5 0 -10 11 -10
25 0 14 5 25 10 25 6 0 10 -11 10 -25z m-200 -109 c0 -7 -13 -16 -29 -19 -16
-3 -42 -9 -57 -13 l-29 -7 25 20 c38 31 90 42 90 19z m-306 -45 c8 -13 -20
-45 -33 -37 -8 5 -8 13 -1 27 11 20 25 25 34 10z m428 -6 c0 -5 -5 -11 -11
-13 -6 -2 -11 4 -11 13 0 9 5 15 11 13 6 -2 11 -8 11 -13z m-334 -83 c4 -13
-44 -39 -55 -29 -8 9 28 48 41 44 5 -2 12 -9 14 -15z m-89 -116 c7 -25 18 -47
24 -49 7 -2 9 -7 5 -11 -5 -6 -32 -1 -106 20 -15 4 34 84 52 84 6 0 18 -20 25
-44z m251 -50 l25 -14 -38 -7 c-44 -8 -55 -2 -37 20 15 18 18 18 50 1z"/>
<path d="M2260 12784 c0 -9 -9 -18 -19 -21 -26 -7 -34 -31 -16 -49 8 -9 15
-20 15 -26 0 -6 6 -6 15 2 28 23 15 -5 -20 -42 -38 -42 -64 -48 -72 -18 -5 21
-18 26 -27 12 -9 -15 9 -31 54 -45 80 -26 105 -27 146 -7 40 21 51 19 115 -23
23 -16 28 -16 39 -2 10 13 9 15 -9 15 -34 0 -24 27 14 40 l35 12 -17 29 c-10
16 -21 29 -25 29 -17 0 -7 28 12 33 14 4 30 -4 48 -21 22 -22 27 -24 30 -11 2
9 16 19 33 23 33 6 38 22 9 31 -23 7 -26 25 -8 43 9 9 -28 12 -170 12 -160 0
-182 -2 -182 -16z m15 -164 c3 -5 1 -10 -4 -10 -6 0 -11 5 -11 10 0 6 2 10 4
10 3 0 8 -4 11 -10z"/>
<path d="M6200 12766 c-16 -26 -29 -36 -53 -38 -34 -3 -38 -9 -132 -163 -22
-36 -64 -102 -92 -146 -29 -44 -53 -85 -53 -89 0 -5 9 -12 20 -15 25 -8 25
-18 1 -53 -44 -64 -211 -331 -211 -339 0 -3 -10 -20 -23 -37 -13 -17 -35 -51
-49 -76 -13 -25 -49 -83 -78 -130 -29 -47 -87 -140 -129 -208 -42 -67 -106
-171 -143 -230 -37 -59 -74 -120 -83 -137 -37 -71 -71 -110 -97 -113 -22 -3
-39 -22 -94 -109 -59 -95 -65 -108 -54 -129 12 -21 -2 -46 -167 -311 -99 -158
-240 -385 -313 -503 -163 -264 -160 -261 -196 -280 -38 -22 -95 -117 -88 -147
4 -16 -6 -44 -36 -93 -23 -39 -40 -76 -38 -82 5 -14 124 -58 158 -58 28 0 46
16 114 105 33 43 263 384 286 423 43 74 97 147 110 147 15 0 40 40 40 65 0 35
85 178 136 230 30 30 54 60 54 66 0 6 7 17 15 24 8 7 33 40 56 73 23 33 50 70
60 81 11 11 19 24 19 29 0 6 17 35 38 65 20 30 42 62 47 71 6 9 24 34 41 56
17 22 39 56 49 75 10 19 31 50 46 68 16 18 29 37 29 42 0 12 83 133 98 143 7
5 17 18 22 30 9 21 78 126 165 252 22 32 49 76 60 97 11 22 25 42 31 46 11 7
53 75 118 190 20 35 55 88 79 118 79 103 203 276 252 353 17 26 42 62 58 80
15 18 27 36 27 41 0 4 19 32 43 62 23 29 47 61 52 70 48 81 72 117 93 142 13
17 28 39 33 50 5 12 25 41 44 66 19 25 41 59 48 75 8 17 24 39 36 49 11 11 21
23 21 28 0 4 -101 8 -224 8 l-224 0 -22 -34z"/>
<path d="M6839 12758 c-35 -43 -75 -98 -94 -129 -5 -9 -30 -45 -55 -79 -25
-35 -60 -84 -78 -109 -18 -25 -56 -80 -84 -121 -29 -41 -56 -79 -60 -85 -28
-36 -89 -119 -123 -168 -22 -31 -61 -88 -88 -125 -26 -37 -60 -85 -75 -107
-16 -22 -45 -64 -65 -92 -20 -29 -37 -56 -37 -59 0 -3 -31 -47 -68 -97 -127
-171 -252 -347 -252 -355 0 -4 -8 -17 -17 -28 -35 -38 -83 -103 -83 -110 0 -4
-16 -26 -35 -50 -19 -23 -35 -45 -35 -49 0 -5 -44 -68 -78 -110 -4 -5 -18 -26
-32 -45 -13 -19 -27 -37 -30 -40 -3 -3 -9 -12 -15 -21 -26 -43 -92 -136 -108
-154 -10 -11 -25 -33 -33 -48 -8 -15 -22 -36 -31 -45 -8 -9 -55 -75 -105 -147
-49 -71 -94 -134 -101 -140 -7 -5 -21 -27 -31 -47 -11 -21 -23 -38 -28 -38 -4
0 -8 -4 -8 -10 0 -8 -86 -137 -100 -150 -3 -3 -16 -22 -30 -42 -14 -20 -35
-41 -47 -47 -12 -5 -30 -30 -41 -55 -19 -42 -92 -150 -116 -171 -6 -5 -27 -35
-46 -65 -18 -30 -42 -65 -53 -77 -19 -21 -37 -49 -54 -83 -4 -8 -17 -25 -29
-37 -29 -28 -94 -127 -94 -141 0 -6 -4 -12 -9 -14 -5 -1 -16 -86 -26 -188 -9
-102 -18 -190 -20 -196 -6 -21 32 -3 43 19 10 20 11 19 11 -10 1 -23 -5 -37
-19 -45 -11 -7 -20 -19 -20 -26 0 -7 -7 -20 -15 -28 -13 -14 -15 -14 -15 1 0
9 -4 13 -10 10 -5 -3 -10 -17 -10 -30 0 -39 -10 -53 -33 -48 -13 3 -18 1 -12
-4 6 -4 10 -15 10 -23 0 -8 8 -14 17 -14 10 1 14 -4 11 -12 -3 -8 2 -11 15 -7
14 3 21 -2 25 -19 8 -27 8 -119 0 -100 -11 28 -23 9 -23 -37 0 -66 11 -73 109
-69 75 3 81 2 82 -17 0 -18 1 -17 10 4 12 31 17 25 38 -45 10 -31 21 -52 24
-46 7 10 -5 59 -40 167 -9 28 -18 68 -21 90 -2 22 -8 48 -13 57 -5 9 -9 28 -9
42 0 14 -4 26 -10 26 -12 0 -14 37 -2 42 6 2 20 20 85 103 33 43 58 93 72 143
14 50 22 62 51 75 19 9 34 21 34 27 0 5 8 10 18 10 11 0 23 11 29 28 l10 27
11 -27 c6 -16 15 -28 20 -28 10 0 52 56 52 70 0 5 6 10 13 10 6 1 32 26 57 56
25 31 55 65 66 77 12 12 56 63 98 112 79 92 113 112 109 65 -1 -14 -5 -65 -8
-115 -4 -49 -13 -117 -20 -150 -8 -33 -17 -91 -20 -130 -4 -38 -13 -108 -20
-155 -18 -111 -28 -210 -22 -210 17 0 80 35 126 69 30 22 70 46 89 52 20 7 77
33 127 59 50 26 107 52 126 59 20 6 53 20 74 31 65 33 115 23 115 -25 0 -11
-7 -29 -15 -39 -8 -11 -15 -25 -15 -32 0 -7 -18 -51 -40 -97 -46 -96 -100
-155 -175 -193 -27 -14 -58 -31 -69 -37 -14 -9 -20 -9 -23 1 -7 19 -25 15
-108 -28 -43 -22 -84 -40 -91 -40 -20 0 -18 -69 2 -92 12 -12 17 -35 16 -77
l-1 -59 52 20 c29 11 66 22 82 24 17 2 21 1 10 -3 -24 -6 -55 -41 -55 -60 0
-8 -11 -13 -28 -13 -28 0 -72 -31 -72 -50 0 -16 50 -11 112 11 69 24 104 23
100 -5 -7 -37 -45 -62 -110 -74 -35 -6 -71 -17 -79 -24 -14 -11 -11 -14 16
-19 35 -7 169 34 219 67 44 29 87 34 106 13 18 -22 46 -25 64 -7 9 9 16 7 32
-7 11 -10 17 -22 13 -28 -7 -12 -22 -77 -17 -77 11 0 54 25 54 31 0 13 42 49
52 43 15 -9 9 -23 -27 -59 -29 -29 -34 -40 -29 -62 10 -40 12 -43 40 -43 15 0
24 -6 24 -16 0 -12 -6 -15 -21 -11 -15 4 -27 -1 -38 -14 -19 -23 -51 -17 -51
10 0 9 -7 26 -15 38 -14 21 -14 23 5 35 25 16 26 28 1 28 -12 0 -24 -12 -32
-30 -9 -19 -23 -32 -41 -36 -16 -3 -33 -14 -38 -25 -7 -12 -21 -19 -41 -19
-34 0 -31 16 6 30 14 5 28 23 36 47 6 21 19 43 28 50 14 11 14 13 1 14 -25 2
-42 -2 -56 -14 -36 -32 -44 -36 -60 -30 -14 5 -16 2 -11 -17 8 -31 -9 -60 -36
-60 -15 0 -30 -14 -46 -40 -16 -26 -34 -41 -53 -46 -16 -3 -32 -12 -34 -19 -6
-15 -64 -38 -73 -29 -3 3 5 14 18 25 33 27 22 32 -29 14 -55 -19 -60 -19 -60
5 0 23 -13 26 -32 7 -23 -22 -66 -36 -93 -31 -39 7 -135 -50 -135 -80 0 -24
-47 -101 -80 -131 -11 -10 -20 -31 -20 -46 0 -26 3 -28 48 -31 44 -3 48 -5 58
-38 9 -28 17 -35 37 -36 15 -1 33 -7 41 -13 13 -11 23 -7 60 19 25 18 47 38
50 45 2 7 -13 19 -36 30 -69 30 -63 55 27 100 47 24 60 27 109 21 58 -8 59 -9
56 -62 -1 -18 3 -35 9 -39 6 -3 11 1 11 9 0 8 5 27 12 43 6 15 12 31 12 35 2
13 51 49 75 54 14 4 44 14 66 25 22 10 52 17 67 15 15 -2 25 0 23 5 -11 16 21
15 51 -3 46 -27 51 -6 8 31 -42 37 -54 36 -130 -16 -45 -30 -57 -34 -105 -31
-46 3 -54 6 -54 23 0 16 24 32 110 73 127 62 230 81 184 35 -16 -16 -4 -29 32
-37 19 -3 33 -13 36 -25 3 -11 18 -25 33 -31 16 -7 31 -18 34 -26 6 -16 31 -9
61 16 27 23 90 43 114 35 24 -7 35 -33 21 -51 -6 -7 -31 -21 -56 -31 -24 -10
-44 -21 -44 -25 0 -12 -100 -58 -126 -58 -13 0 -29 -9 -36 -21 -15 -23 -78
-59 -105 -59 -10 0 -29 7 -41 16 -33 23 -158 4 -166 -25 -9 -32 0 -119 13
-135 25 -30 -1 -38 -52 -16 -49 22 -61 40 -27 40 11 0 20 5 20 10 0 12 -37 14
-43 2 -3 -4 -46 -7 -96 -6 -61 1 -94 -3 -101 -11 -14 -16 9 -26 75 -34 40 -5
50 -10 50 -25 0 -13 -15 -24 -50 -37 -99 -39 -114 -50 -121 -94 -8 -53 -74
-193 -71 -150 1 21 -2 29 -12 27 -19 -4 -51 8 -51 19 0 5 11 9 25 9 51 0 90
75 45 87 -12 3 -20 14 -20 25 0 12 -9 36 -21 54 -17 28 -27 34 -54 34 -27 0
-33 4 -38 28 -7 31 -61 92 -83 92 -23 0 -16 -20 16 -50 17 -15 30 -35 30 -42
0 -8 8 -23 19 -32 10 -9 21 -30 25 -47 3 -17 12 -29 21 -29 8 0 20 -9 27 -20
7 -11 21 -20 30 -20 11 0 18 -8 18 -20 0 -21 -15 -27 -25 -10 -4 7 -11 8 -18
2 -8 -6 -36 -6 -75 1 -57 9 -64 13 -68 36 -3 15 -19 42 -35 60 -32 38 -36 51
-14 51 17 0 18 10 6 62 -7 31 -5 42 15 71 13 19 30 37 40 41 12 5 15 15 12 44
-4 25 3 59 22 107 15 39 32 86 38 105 5 19 13 43 17 53 7 16 -3 17 -126 17
-158 0 -276 -10 -257 -21 36 -23 -105 -41 -329 -44 -103 -1 -166 -5 -175 -13
-8 -6 -63 -23 -123 -37 -89 -22 -113 -24 -131 -14 -25 13 -54 6 -54 -13 0 -20
-57 -70 -65 -58 -17 27 33 114 60 104 8 -4 29 11 52 35 33 37 42 41 84 41 l47
0 -30 30 c-29 29 -58 40 -58 21 0 -12 -87 -71 -104 -71 -8 0 -19 -7 -26 -15
-7 -8 -21 -15 -31 -15 -19 0 -25 11 -12 24 4 4 9 19 11 33 6 50 19 63 52 53
33 -9 49 3 31 24 -6 7 -9 20 -5 29 4 12 -5 17 -41 23 -25 3 -58 17 -73 29 -25
20 -129 65 -153 65 -5 0 -18 -15 -29 -32 -11 -18 -20 -27 -20 -20 0 6 -6 12
-14 12 -8 0 -21 8 -28 18 -31 41 -43 44 -80 18 -41 -27 -83 -39 -148 -40 l-46
-1 38 51 c35 45 45 52 96 64 72 17 82 25 82 64 l0 32 -84 -4 c-116 -6 -142 1
-208 56 -31 26 -78 60 -103 76 -26 16 -51 40 -57 55 -9 25 -10 25 -26 -24 -14
-42 -21 -50 -45 -53 -23 -3 -27 0 -27 22 0 14 5 28 10 31 6 4 8 15 5 25 -4 13
1 19 20 24 14 4 25 10 25 15 0 13 -47 34 -63 28 -8 -3 -23 3 -33 14 -10 12
-33 27 -51 34 -18 8 -33 19 -33 25 0 8 -11 9 -31 5 -24 -5 -35 -2 -50 14 -32
34 -40 26 -37 -41 3 -59 5 -63 27 -63 34 0 52 -32 28 -50 -22 -16 -44 -10 -50
13 -3 12 -5 10 -6 -5 -2 -44 -20 -22 -27 33 l-7 56 -24 -31 c-24 -30 -26 -31
-38 -14 -7 10 -13 42 -13 71 -1 73 -7 86 -47 105 -77 37 -116 5 -56 -45 26
-22 51 -58 51 -72 0 -10 -18 -6 -32 7 -8 6 -28 25 -45 41 l-32 28 -36 -22
c-51 -31 -43 -54 20 -60 69 -8 114 -34 115 -67 0 -15 -115 -6 -153 13 -30 14
-57 9 -70 -12 -4 -7 -14 -11 -21 -8 -9 3 -18 -6 -24 -25 -9 -26 -8 -31 4 -31
10 0 13 -6 9 -19 -3 -11 0 -21 8 -24 9 -3 16 -29 20 -72 4 -37 13 -77 20 -89
7 -11 24 -47 36 -78 27 -68 51 -86 122 -90 40 -2 54 -7 54 -18 0 -12 -12 -15
-53 -15 l-54 1 5 -31 c6 -42 -8 -63 -46 -70 -58 -11 -62 -12 -90 -20 -46 -12
-58 10 -70 124 -10 108 2 191 29 191 10 0 12 9 7 33 -3 17 -10 33 -14 35 -14
6 -22 71 -10 86 11 13 -1 66 -20 91 -8 11 -11 48 -25 265 l-7 115 31 32 c17
17 38 33 47 35 19 3 45 68 45 111 0 38 16 66 44 77 34 12 23 67 -20 103 l-33
28 -16 -33 c-8 -18 -35 -69 -59 -113 -25 -44 -45 -90 -45 -102 -1 -17 -7 -23
-25 -23 -23 0 -24 -2 -19 -59 3 -44 0 -66 -12 -84 -19 -29 -11 -64 11 -46 20
16 19 -8 -1 -27 -14 -14 -10 -48 5 -39 4 2 15 -2 25 -9 17 -12 17 -15 3 -29
-11 -12 -14 -29 -10 -66 4 -45 2 -51 -12 -45 -9 3 -16 11 -16 17 0 6 -7 4 -16
-5 -11 -11 -14 -23 -8 -39 4 -13 7 -30 5 -37 -1 -8 5 -24 13 -37 9 -14 16 -27
16 -30 0 -3 -44 -4 -97 -1 -54 3 -206 8 -338 12 -132 4 -247 8 -255 10 -8 1
-41 3 -73 3 -32 1 -56 5 -53 9 3 4 -34 6 -82 4 -48 -2 -103 1 -122 6 l-35 10
33 2 c17 2 42 3 55 4 12 1 30 -2 40 -6 11 -6 16 -5 15 2 -5 22 131 60 204 58
78 -2 102 11 67 36 -25 17 -119 22 -119 6 0 -5 -7 -7 -15 -4 -10 4 -15 20 -15
50 0 24 3 43 8 43 41 -7 52 2 52 41 0 22 -4 40 -10 40 -17 0 -11 21 15 52 14
17 24 32 22 34 -4 4 -80 14 -152 20 -27 2 -72 8 -100 13 -43 7 -45 9 -16 10
43 1 111 22 111 33 0 4 -6 8 -12 9 -7 0 -22 3 -33 6 -11 3 -37 5 -57 5 -21 0
-38 4 -38 9 0 5 -17 9 -39 9 -22 0 -44 6 -51 15 -7 8 -22 15 -34 16 -19 1 -19
2 4 10 16 5 -15 7 -82 4 -60 -3 -110 -1 -113 5 -3 5 14 11 37 13 24 2 -4 5
-62 6 -58 1 -150 4 -205 6 -55 3 -153 7 -218 9 l-117 4 0 -319 0 -319 37 0
c35 0 36 -1 17 -15 -18 -15 -15 -15 31 -11 197 21 256 23 435 15 107 -6 404
-14 660 -20 256 -6 498 -11 538 -12 60 -2 75 -5 84 -21 6 -10 19 -27 30 -38
23 -23 37 -136 38 -303 0 -60 4 -115 8 -122 4 -6 23 -11 42 -10 25 2 35 -3 38
-15 5 -26 -50 -139 -65 -134 -10 4 -13 -19 -13 -105 0 -107 1 -110 20 -104 16
5 32 -3 64 -33 56 -52 141 -70 243 -52 83 15 127 11 131 -11 2 -13 -8 -18 -45
-24 -54 -8 -75 -17 -117 -52 -15 -13 -44 -30 -64 -39 -33 -14 -34 -15 -16 -28
18 -14 18 -15 -10 -25 -60 -24 8 -51 164 -66 57 -5 68 -10 82 -33 10 -15 33
-50 52 -79 39 -58 40 -57 -41 -96 -29 -14 -70 -38 -90 -55 -21 -16 -63 -46
-94 -65 -31 -20 -63 -42 -70 -50 -8 -7 -39 -29 -70 -49 -51 -33 -219 -189
-219 -203 0 -4 -14 -20 -31 -38 -30 -29 -88 -104 -137 -175 -12 -19 -36 -48
-53 -65 -17 -18 -37 -47 -45 -66 -9 -18 -30 -47 -48 -65 -19 -17 -48 -58 -66
-91 -150 -277 -210 -393 -210 -407 0 -13 -36 -87 -77 -158 -11 -19 -35 -78
-54 -130 -32 -92 -104 -225 -134 -250 -8 -7 -37 -13 -64 -14 -47 -1 -71 -10
-59 -21 3 -3 17 -1 31 4 16 6 29 7 32 1 10 -15 -33 -31 -88 -32 -72 -1 -267
-80 -267 -108 0 -4 -15 -17 -33 -28 -19 -11 -42 -27 -53 -36 -10 -8 -28 -22
-39 -31 -17 -13 -18 -16 -5 -25 12 -8 11 -10 -8 -10 -13 0 -40 -11 -60 -25
-20 -14 -47 -25 -60 -25 -13 0 -55 -14 -94 -30 -38 -17 -77 -30 -87 -30 -9 0
-33 -5 -53 -11 l-38 -10 0 -2319 0 -2320 200 0 200 0 -2 73 -3 72 65 61 c36
33 92 86 125 117 33 31 72 59 86 62 18 4 64 53 150 156 92 112 131 152 152
156 16 3 34 17 42 32 8 14 18 32 23 39 9 13 131 43 144 36 19 -12 17 -64 -5
-123 -24 -65 -45 -72 -26 -10 6 19 13 56 16 82 5 48 4 48 -17 37 -12 -7 -40
-17 -61 -23 -38 -12 -42 -18 -108 -152 -64 -127 -68 -140 -50 -143 11 -2 32 1
47 6 l27 9 -3 -61 c-5 -76 13 -66 33 20 17 71 19 108 5 99 -6 -4 2 19 17 49
27 55 51 77 37 34 -15 -49 -33 -122 -30 -125 6 -6 111 20 123 31 14 12 107
275 101 282 -12 11 -67 -10 -76 -30 -7 -14 -11 -16 -11 -5 -2 31 23 50 69 52
41 2 45 0 48 -23 6 -46 11 -54 27 -40 8 7 15 20 15 30 0 27 20 37 80 43 l55 6
-52 -12 c-28 -7 -55 -15 -58 -19 -7 -6 -75 -236 -75 -252 0 -10 140 1 176 14
13 5 24 17 24 26 0 13 -7 15 -34 10 -39 -7 -49 6 -37 51 6 23 14 29 47 33 30
4 39 9 39 24 0 12 -8 20 -24 23 -32 5 -35 8 -27 37 4 17 15 26 36 31 38 8 48
24 25 42 -17 12 -17 13 9 13 27 0 28 -1 21 -40 -7 -43 -3 -46 39 -30 18 7 26
17 26 34 0 40 26 57 79 54 45 -3 46 -4 49 -38 5 -53 18 -56 33 -8 13 41 16 43
54 43 58 1 78 -11 72 -43 -7 -34 1 -52 23 -52 20 0 30 19 30 56 0 23 3 24 68
23 104 -2 116 -7 120 -57 3 -37 6 -42 28 -42 20 0 24 5 24 33 0 56 8 60 106
55 49 -2 98 -9 109 -15 15 -9 -5 -10 -83 -6 -100 6 -102 6 -102 -16 0 -27 47
-259 55 -272 4 -5 18 -9 32 -9 16 0 23 -4 20 -13 -3 -6 -8 -20 -12 -29 -9 -22
4 -23 33 -2 26 18 29 34 5 34 -16 0 -15 1 1 13 14 11 16 19 8 54 -5 23 -7 44
-4 48 16 16 36 -1 56 -48 l24 -52 46 3 46 4 -40 55 c-39 55 -39 56 -23 84 21
35 27 32 13 -6 -9 -24 -6 -32 31 -78 38 -48 40 -55 34 -97 -4 -25 -13 -69 -21
-97 l-15 -53 -55 0 c-49 0 -56 3 -67 26 l-12 27 -5 -24 c-5 -22 -11 -24 -72
-27 l-66 -3 -7 53 c-3 29 -10 64 -16 78 -5 14 -12 76 -16 139 -6 82 -12 116
-21 119 -11 3 -13 -9 -9 -59 2 -35 9 -82 15 -103 13 -48 -3 -204 -22 -224 -16
-16 -166 -7 -190 12 -11 9 -16 53 -22 203 -7 192 -7 193 -29 193 -21 0 -24 -6
-28 -57 -4 -54 -38 -197 -69 -288 l-13 -40 -87 0 c-48 0 -89 3 -92 6 -12 11
-25 156 -26 267 l0 113 -32 -3 -33 -3 -16 -100 c-10 -55 -20 -137 -24 -183 -4
-45 -12 -86 -19 -90 -14 -9 -198 -30 -210 -24 -5 3 -6 48 -3 101 5 82 17 142
52 250 4 12 2 21 -4 21 -6 0 -11 -8 -11 -17 0 -10 -6 -35 -14 -58 -8 -22 -33
-100 -56 -172 -23 -73 -46 -135 -51 -138 -5 -3 -41 -12 -81 -20 -63 -12 -74
-12 -83 0 -8 12 -13 10 -30 -10 -13 -17 -35 -28 -65 -33 -40 -7 -45 -11 -42
-32 1 -13 4 -25 5 -27 2 -1 90 16 197 38 276 56 523 67 845 37 197 -18 855
-10 855 10 0 3 -20 35 -44 71 -135 203 -226 345 -226 352 0 5 -7 6 -15 3 -9
-4 -15 0 -15 10 0 10 6 13 15 10 15 -6 37 -36 125 -169 26 -38 69 -103 96
-144 27 -40 54 -81 59 -91 6 -10 17 -25 24 -34 15 -18 6 -50 -45 -164 -30 -66
-30 -66 4 -118 l27 -44 392 0 c366 0 392 1 397 18 3 10 10 51 15 92 6 41 13
93 16 115 3 22 7 63 9 90 8 118 19 205 26 205 4 0 11 -16 14 -35 11 -55 37
-110 45 -96 6 10 10 9 15 -4 9 -23 8 -27 -5 -19 -6 3 -3 -8 5 -25 9 -17 20
-31 24 -31 4 0 12 -15 19 -32 6 -18 25 -71 42 -118 17 -47 31 -96 30 -110 -2
-39 0 -50 10 -50 5 0 7 18 4 40 -4 28 -2 40 6 40 7 0 30 -18 51 -40 21 -22 43
-40 48 -40 11 0 -13 56 -29 65 -13 8 -42 66 -36 72 3 2 32 -14 64 -36 43 -29
83 -46 143 -60 46 -11 85 -19 87 -17 4 4 -38 20 -94 35 -23 6 -45 16 -48 21
-8 12 27 13 40 1 15 -13 95 -23 95 -11 0 5 -8 10 -18 10 -9 0 -34 11 -54 25
-20 14 -41 25 -47 25 -18 0 -139 110 -169 153 -16 24 -37 65 -47 90 -10 26
-21 44 -26 42 -4 -3 -17 15 -28 41 -22 49 -28 160 -11 199 10 23 12 14 12 -55
l-1 -45 9 46 c4 26 12 55 18 65 5 11 8 47 6 81 -3 56 0 64 22 82 19 15 24 28
24 65 0 26 5 46 11 46 18 0 3 -116 -20 -148 -11 -16 -18 -31 -16 -34 14 -14
10 -72 -6 -103 -11 -20 -17 -48 -15 -67 2 -18 4 -61 5 -96 1 -44 4 -61 12 -56
8 5 10 32 6 86 -4 68 -3 79 10 74 12 -5 14 -1 10 16 -8 30 28 80 42 59 5 -8
18 -12 30 -8 16 4 21 1 21 -13 0 -12 -8 -20 -22 -22 -18 -2 -24 -10 -26 -38
-2 -33 -1 -34 13 -16 14 19 15 18 16 -15 l0 -34 16 32 c17 33 36 42 48 23 3
-5 0 -10 -7 -11 -7 0 -3 -5 10 -11 12 -6 22 -18 22 -27 0 -12 3 -12 12 -3 7 7
29 12 50 12 37 0 87 17 99 33 12 16 45 -15 63 -60 10 -24 29 -57 41 -71 12
-15 42 -72 65 -126 53 -126 66 -145 108 -163 28 -11 40 -27 66 -83 l31 -69 48
1 c49 1 61 14 32 38 -8 7 -15 21 -15 31 0 14 -8 19 -32 21 -28 1 -27 2 12 8
l45 7 -41 1 c-57 3 -68 29 -16 37 20 3 45 10 54 16 10 5 25 9 34 9 16 0 116
43 324 137 41 18 83 38 92 43 10 6 25 10 33 10 8 0 15 5 15 10 0 6 6 10 13 10
13 0 88 38 97 49 3 4 16 12 30 19 14 7 45 25 70 40 25 15 65 36 90 47 25 10
79 40 120 67 76 50 117 64 112 40 -1 -8 3 -12 10 -9 7 2 12 17 11 33 -1 16 1
21 4 12 2 -10 11 -18 18 -18 7 0 16 -6 19 -12 12 -26 -2 28 -20 74 l-18 48 31
32 c17 18 33 45 37 61 3 15 9 38 12 52 4 17 -2 38 -23 72 -16 26 -46 83 -67
126 -21 42 -42 79 -46 82 -4 2 -13 -8 -20 -23 -8 -17 -14 -22 -17 -14 -3 7 3
22 13 33 15 16 16 23 6 37 -15 21 -21 34 -62 142 -37 97 -52 131 -144 323 -36
75 -64 138 -63 140 1 1 -9 17 -22 35 -17 24 -26 30 -35 22 -9 -7 -18 -4 -31
10 -22 24 -12 39 15 22 31 -19 33 -15 9 28 -16 28 -25 36 -31 28 -6 -10 -8
-10 -8 -1 0 6 5 15 11 19 8 5 6 10 -5 16 -9 5 -16 19 -16 32 0 13 -8 30 -17
37 -10 8 -14 9 -10 2 4 -6 3 -14 -3 -18 -5 -3 -10 -1 -10 5 0 6 -6 10 -12 9
-28 -3 -38 2 -38 18 0 12 3 14 11 6 12 -12 49 -6 49 8 0 5 -9 18 -20 29 -11
11 -17 26 -14 35 5 11 -1 15 -20 15 -14 0 -26 5 -26 10 0 6 5 10 10 10 6 0 10
7 10 17 0 23 -51 107 -59 97 -3 -5 -19 -10 -35 -11 -16 0 -33 -7 -38 -15 -7
-10 -8 -8 -4 5 3 10 6 20 6 23 0 2 6 1 13 -2 7 -2 22 5 32 16 18 20 18 21 -5
63 -13 23 -28 45 -34 49 -6 4 -9 21 -8 38 3 29 2 31 -17 20 -12 -6 -21 -15
-21 -19 0 -13 -36 -20 -51 -10 -13 8 -12 10 10 13 19 2 25 17 11 26 -8 5 -11
12 -7 16 3 4 13 1 22 -6 19 -16 26 -10 19 17 -4 14 -11 19 -25 16 -14 -4 -19
0 -19 15 0 11 -7 22 -15 26 -12 4 -14 15 -9 47 6 36 4 44 -17 60 -13 10 -18
19 -11 19 14 0 17 30 2 30 -14 0 -13 27 2 36 6 4 19 -3 30 -16 15 -18 18 -19
18 -5 0 23 -54 75 -79 75 -21 0 -41 27 -41 55 0 13 7 11 34 -10 26 -19 40 -24
65 -19 29 6 31 4 37 -26 4 -17 13 -34 20 -37 15 -5 39 -71 30 -80 -3 -4 -12 2
-20 12 -12 16 -13 15 -8 -14 3 -22 9 -31 18 -27 11 4 14 -7 14 -46 0 -50 -12
-57 -23 -13 -3 13 -5 8 -6 -13 -1 -21 5 -35 14 -38 8 -4 15 -12 15 -20 0 -8 4
-14 9 -14 15 0 24 86 16 138 -4 26 -9 68 -11 94 -4 51 -46 166 -67 183 -6 6
-12 16 -13 23 -1 6 -2 18 -3 25 0 6 -13 13 -28 14 -15 0 -32 8 -39 17 -6 9
-16 16 -22 16 -6 0 -14 9 -17 20 -3 11 -11 20 -16 20 -5 0 -9 11 -9 25 0 27
18 33 38 13 6 -6 15 -9 18 -5 11 11 -27 47 -48 47 -29 0 -31 24 -7 71 14 28
18 44 10 47 -15 5 -14 35 1 50 9 9 13 62 13 187 0 96 4 170 8 166 5 -5 16 -39
25 -77 16 -64 17 -67 20 -31 2 23 -8 70 -27 125 -29 82 -31 96 -27 199 2 61 0
116 -4 124 -5 8 -4 19 2 26 6 8 7 13 1 13 -11 0 -34 85 -36 135 -1 17 -6 36
-10 43 -5 6 -6 16 -3 21 3 4 1 23 -5 42 -5 19 -12 52 -14 74 -6 50 -33 137
-34 110 -1 -16 -3 -17 -10 -6 -6 9 -5 21 1 31 12 18 -6 90 -79 330 -19 63 -39
129 -43 145 -5 17 -25 82 -45 147 -19 64 -35 124 -35 135 0 10 -7 32 -16 48
-10 18 -17 56 -18 97 0 36 -3 64 -5 62 -8 -8 -40 102 -41 137 0 20 -7 56 -15
79 -26 75 -25 76 66 83 45 3 86 10 92 16 8 8 8 11 0 11 -22 0 -24 33 -2 53 17
16 23 17 30 6 5 -9 9 21 9 78 l0 92 -40 32 c-39 31 -54 69 -27 69 7 0 29 -11
49 -25 20 -14 41 -25 46 -25 5 0 15 -7 22 -16 7 -8 25 -14 38 -12 20 2 29 12
40 46 16 48 18 48 107 5 39 -20 65 -25 115 -24 l65 0 -40 -24 c-52 -32 -124
-34 -145 -5 -8 11 -24 20 -35 20 -16 0 -17 -2 -5 -10 13 -8 13 -10 -2 -10 -9
0 -18 5 -20 12 -3 9 -6 9 -12 0 -4 -7 3 -14 19 -18 28 -7 29 -11 14 -51 -12
-30 -14 -44 -23 -140 l-6 -63 43 0 c24 0 48 5 53 10 8 8 20 7 40 0 28 -11 165
-9 503 9 22 1 23 4 16 46 -3 25 -17 67 -31 93 -17 33 -28 76 -34 135 -9 89
-15 111 -29 102 -5 -2 -42 -7 -84 -9 -59 -4 -78 -2 -88 10 -9 11 -9 18 -1 26
21 21 13 46 -17 56 -33 12 -50 61 -22 63 9 1 21 2 26 3 13 1 117 67 130 82 11
12 74 39 79 33 8 -9 56 -174 56 -194 0 -11 4 -25 8 -31 5 -5 19 -45 31 -89 13
-44 32 -109 42 -143 11 -35 22 -91 26 -123 5 -53 8 -59 28 -59 21 0 24 7 34
88 6 48 18 112 25 142 8 30 20 100 26 155 7 61 21 121 36 154 13 29 24 64 24
77 0 33 18 39 44 15 17 -16 30 -19 57 -15 21 4 49 0 70 -9 23 -9 54 -13 88 -9
41 4 61 0 90 -16 39 -22 56 -19 63 13 2 12 11 20 23 20 11 0 26 4 33 8 7 5 12
4 12 -2 0 -6 -4 -11 -10 -11 -5 0 -7 -22 -3 -52 6 -60 42 -108 79 -108 13 0
26 -5 30 -11 7 -12 -25 -79 -38 -79 -5 0 -8 -5 -8 -11 0 -6 12 -9 28 -7 22 2
30 11 40 43 7 22 27 55 45 73 32 34 33 34 105 29 50 -3 71 -1 69 7 -2 6 -14
10 -25 9 -25 -3 -32 15 -34 90 -1 39 4 63 17 84 l19 28 7 -40 c4 -22 5 -51 2
-65 -3 -19 -2 -22 6 -10 18 26 32 -3 42 -86 l10 -79 -30 -26 c-17 -14 -31 -32
-31 -41 0 -9 -7 -21 -15 -28 -8 -6 -17 -20 -20 -31 -9 -27 -83 -99 -98 -94
-11 4 -105 14 -172 18 -16 1 -35 5 -41 9 -15 10 -16 78 -2 78 6 0 -7 17 -29
38 -25 25 -45 56 -54 85 l-13 47 -58 0 c-70 0 -81 -13 -72 -94 5 -43 2 -62
-10 -81 -17 -27 -22 -65 -7 -65 6 0 6 -12 0 -32 -14 -50 -11 -88 6 -88 21 0
19 -9 -7 -31 -17 -14 -18 -17 -5 -13 9 3 17 1 17 -5 0 -6 -15 -11 -33 -11 -18
0 -42 -7 -53 -15 -10 -8 -37 -15 -59 -15 -31 0 -37 -3 -27 -12 10 -10 141 -13
585 -13 315 0 634 4 710 9 l137 8 0 377 0 377 -35 -4 c-39 -5 -65 11 -65 38 0
10 23 40 50 66 l50 48 0 313 c0 208 -3 313 -10 313 -6 0 -13 -7 -16 -15 -12
-29 -124 8 -124 40 0 19 24 25 91 25 l59 0 0 94 c0 93 0 93 -24 89 -18 -4 -25
0 -29 18 -3 12 -2 30 3 39 5 10 6 34 3 55 -4 26 -2 40 8 46 26 16 32 9 27 -33
-3 -24 -2 -54 2 -68 5 -15 8 27 9 103 l1 129 -27 -6 c-22 -5 -259 -14 -405
-16 -14 0 -18 -12 -20 -77 -3 -75 -4 -76 -30 -80 -16 -2 -28 1 -28 7 0 5 9 10
19 10 17 0 19 6 16 38 -1 20 -3 51 -4 68 -1 27 -5 32 -33 38 -19 4 -34 2 -36
-4 -6 -17 -50 -11 -61 8 -6 9 -11 13 -11 7 0 -5 -4 -16 -9 -24 -8 -13 -12 -13
-26 -1 -14 12 -18 12 -25 -1 -7 -11 -47 -15 -182 -19 -166 -6 -175 -5 -214 17
-49 26 -80 68 -61 80 8 5 2 9 -18 13 -24 4 -35 15 -53 51 -26 55 -23 66 24 97
34 22 37 23 55 6 10 -9 19 -23 19 -31 0 -20 57 -76 70 -68 5 3 10 15 10 25 0
11 8 27 18 37 9 10 26 35 36 55 10 21 35 53 54 73 19 19 33 37 31 40 -6 6 -88
-33 -111 -53 -20 -17 -61 -19 -91 -4 -12 6 -35 14 -52 18 -29 7 -29 8 15 15
25 4 63 14 85 22 22 9 48 16 57 17 10 0 41 11 70 24 99 43 193 58 173 27 -3
-6 2 -14 11 -19 13 -7 10 -12 -20 -26 -39 -18 -166 -153 -180 -191 -14 -36 -2
-40 28 -10 21 21 30 24 45 15 11 -5 21 -20 23 -32 2 -15 9 -22 18 -19 8 2 29
6 45 9 17 2 35 11 42 19 15 20 33 8 33 -22 0 -13 5 -27 10 -30 14 -8 13 7 -6
78 -13 49 -13 65 -3 84 7 13 15 23 18 23 32 -1 49 -60 51 -180 2 -73 18 -132
19 -69 1 45 10 54 28 29 21 -30 28 -25 29 20 0 22 -3 40 -8 40 -4 0 -8 10 -7
23 0 21 1 21 9 2 7 -17 9 -17 9 -2 2 40 23 11 51 -70 14 -38 37 -50 45 -22 8
25 20 24 38 -2 l15 -21 7 21 c7 22 -10 22 303 6 l92 -4 0 255 0 255 -187 -97
c-104 -53 -192 -100 -197 -105 -6 -5 -17 -9 -26 -9 -9 0 -27 -11 -40 -25 -13
-14 -31 -25 -40 -25 -9 0 -25 -9 -35 -20 -10 -11 -24 -20 -32 -20 -7 0 -13 -4
-13 -10 0 -13 -37 -13 -45 1 -10 16 42 89 64 89 10 0 24 7 31 15 7 9 29 23 49
32 41 19 69 44 65 58 -3 11 54 60 62 52 3 -2 -3 -12 -12 -21 -28 -28 -7 -31
46 -6 28 13 61 38 75 56 14 18 38 35 54 39 17 3 48 20 71 36 22 16 56 37 75
46 l35 17 0 522 c0 593 9 536 -87 528 -112 -9 -149 -16 -164 -30 -9 -8 -40
-18 -68 -23 -28 -4 -59 -15 -69 -23 -9 -9 -35 -19 -56 -22 -30 -6 -52 -21 -91
-62 -29 -30 -56 -54 -59 -54 -4 0 -18 -13 -32 -29 -27 -33 -83 -56 -113 -46
-12 3 -21 19 -25 43 -5 32 -3 40 19 57 14 11 53 43 86 72 33 29 70 55 82 59
12 4 38 18 59 31 22 15 61 28 100 33 35 5 96 18 137 30 46 12 105 20 155 20
45 0 91 3 104 6 l22 6 0 1549 0 1549 -163 0 -163 0 -35 -42z m240 -598 c-1
-42 -3 -49 -9 -30 -12 38 -12 119 0 100 5 -8 9 -40 9 -70z m61 -41 c0 -26 -4
-50 -9 -53 -10 -7 -27 32 -25 59 5 86 3 82 19 61 8 -11 15 -41 15 -67z m-52
-130 l-3 -24 -13 23 c-7 12 -10 27 -6 33 10 17 26 -6 22 -32z m60 -1309 c3
-39 2 -42 -12 -31 -19 16 -22 85 -3 79 6 -3 13 -24 15 -48z m-342 0 c54 -23
63 -59 27 -107 -14 -18 -30 -33 -35 -33 -5 0 -7 -4 -4 -9 3 -5 -15 -19 -40
-30 -53 -25 -154 -27 -154 -2 0 8 -6 11 -15 7 -9 -3 -15 0 -15 9 0 8 -6 15
-14 15 -7 0 -16 9 -19 20 -3 12 -1 18 5 14 6 -4 8 1 4 14 -9 26 31 74 80 97
22 10 32 20 25 24 -24 15 116 -2 155 -19z m29 -850 c3 -5 1 -10 -4 -10 -6 0
-11 5 -11 10 0 6 2 10 4 10 3 0 8 -4 11 -10z m-1247 -401 c31 -32 44 -69 32
-90 -4 -6 -12 -9 -17 -6 -6 4 -15 -5 -21 -18 -6 -13 -23 -27 -37 -31 -14 -3
-25 -10 -25 -15 0 -15 -71 -10 -117 7 -35 14 -42 21 -38 35 4 11 2 19 -4 19
-6 0 -11 7 -11 15 0 8 5 15 10 15 6 0 10 6 10 14 0 8 15 25 33 37 17 13 34 26
37 30 9 11 34 17 76 18 34 1 47 -5 72 -30z m1057 -39 c8 -24 -1 -40 -21 -40
-8 0 -14 10 -14 23 0 40 24 51 35 17z m-19 -309 l-4 -90 71 2 71 2 9 -32 c6
-18 14 -33 18 -33 5 0 9 -3 9 -7 0 -5 -21 -9 -47 -11 -51 -3 -68 -12 -88 -53
-14 -26 -14 -28 17 -38 17 -6 39 -11 48 -11 51 0 164 -73 181 -117 5 -13 22
-31 38 -41 16 -9 36 -31 45 -49 15 -31 15 -32 -20 -62 -39 -35 -47 -37 -64
-16 -9 11 -7 20 11 46 29 41 23 50 -75 117 -73 48 -104 64 -92 43 3 -4 -5 -6
-18 -4 -13 3 -26 13 -29 23 -6 25 -52 53 -74 46 -10 -3 -28 -22 -40 -41 -24
-36 -64 -61 -157 -95 -61 -23 -92 -50 -58 -50 12 0 24 -4 27 -10 3 -5 15 -10
26 -10 11 0 19 -7 19 -16 0 -12 6 -10 21 10 22 28 49 35 49 12 0 -7 9 -25 20
-39 11 -14 20 -32 20 -41 0 -9 7 -19 15 -22 8 -4 13 -10 10 -14 -3 -4 4 -10
15 -13 11 -3 20 -13 20 -22 0 -12 -6 -16 -20 -12 -13 3 -21 -1 -25 -14 -5 -14
-16 -19 -45 -19 -49 0 -55 10 -29 44 12 15 20 28 18 29 -46 25 -97 47 -108 47
-8 0 -24 8 -35 19 -12 10 -31 22 -44 26 -19 5 -25 2 -29 -14 -3 -13 -16 -23
-32 -27 -14 -3 -33 -10 -41 -15 -8 -5 -40 -21 -70 -34 -105 -47 -124 -60 -146
-100 -31 -57 -54 -53 -77 14 -21 59 -38 81 -77 101 -14 7 -57 43 -97 79 -71
65 -103 120 -90 155 9 23 79 64 123 71 22 4 75 17 119 30 44 13 115 29 158 34
43 6 90 17 105 25 49 25 168 56 275 71 57 8 111 17 119 20 11 5 17 30 22 100
3 52 9 102 13 111 14 36 24 -17 19 -105z m-6118 -108 c-10 -2 -26 -2 -35 0
-10 3 -2 5 17 5 19 0 27 -2 18 -5z m6438 -30 c-3 -26 -26 -47 -26 -24 0 6 -4
11 -10 11 -5 0 -10 -7 -10 -15 0 -11 -11 -15 -40 -15 -29 0 -40 4 -40 15 0 8
8 15 18 15 11 0 27 9 37 20 10 11 31 20 46 20 24 0 27 -3 25 -27z m-259 -228
c3 -9 -2 -24 -12 -35 -16 -18 -16 -21 5 -65 12 -25 31 -52 42 -60 12 -7 29
-27 39 -42 l19 -28 0 26 c0 54 50 67 70 18 15 -36 5 -62 -26 -67 -18 -3 -134
-119 -134 -134 0 -3 -10 -10 -22 -14 -13 -4 -26 -12 -30 -18 -13 -21 -18 1 -7
33 10 27 16 32 36 28 19 -3 23 -1 18 12 -8 19 -23 112 -27 159 -1 19 -6 36
-11 39 -4 2 -5 13 -2 24 4 11 2 19 -4 19 -6 0 -11 -8 -11 -17 -1 -15 -4 -14
-20 6 -23 26 -26 65 -7 81 67 57 74 60 84 35z m74 -41 c9 -11 8 -14 -8 -14
-19 0 -43 17 -43 31 0 11 38 -2 51 -17z m-6041 -224 c0 -5 -12 -10 -27 -9
l-28 1 25 8 c14 4 26 8 28 9 1 1 2 -3 2 -9z m5108 -41 c-23 -15 -50 -10 -46 8
4 22 52 35 56 15 2 -8 -2 -18 -10 -23z m-3903 -17 c-8 -8 -25 10 -19 20 4 6 9
5 15 -3 4 -7 6 -15 4 -17z m616 -33 c-6 -21 -4 -41 7 -74 35 -100 48 -225 25
-232 -9 -3 -13 6 -13 25 0 16 -7 42 -15 58 -8 16 -17 49 -20 74 -4 25 -18 69
-32 98 -21 43 -24 55 -13 62 21 13 66 4 61 -11z m4023 -54 c-4 -9 -12 -14 -18
-12 -17 6 -20 38 -5 48 17 10 32 -13 23 -36z m-4409 23 c25 -11 34 -28 15 -28
-13 0 -70 29 -70 35 0 9 29 5 55 -7z m166 -35 c19 -21 26 -40 27 -73 l1 -45
-22 40 c-18 32 -33 44 -77 60 l-55 19 33 7 c18 4 36 9 39 13 13 12 30 5 54
-21z m3234 -3 c3 -5 1 -10 -4 -10 -6 0 -11 5 -11 10 0 6 2 10 4 10 3 0 8 -4
11 -10z m-2696 -65 c-12 -19 -25 -38 -30 -41 -5 -3 -9 -14 -9 -25 0 -39 -25
-12 -28 30 -4 52 10 71 54 71 l33 0 -20 -35z m3758 -117 c-3 -8 -6 -5 -6 6 -1
11 2 17 5 13 3 -3 4 -12 1 -19z m-745 -18 c32 0 88 -47 88 -74 0 -28 -38 -18
-55 13 -14 29 -21 33 -78 45 -16 4 -25 11 -21 17 3 6 13 8 21 5 8 -3 28 -6 45
-6z m-2612 -60 c0 -5 -4 -10 -10 -10 -5 0 -10 5 -10 10 0 6 5 10 10 10 6 0 10
-4 10 -10z m2614 -6 c17 -7 22 -39 7 -49 -5 -3 -17 5 -25 17 -25 36 -19 46 18
32z m-2854 -29 c7 -9 10 -18 7 -22 -8 -7 -37 15 -37 28 0 14 16 11 30 -6z
m140 -10 c-16 -19 -40 -19 -40 0 0 8 6 12 14 9 8 -3 17 0 21 6 4 6 9 9 12 6 3
-3 0 -12 -7 -21z m360 -10 c0 -18 -37 -48 -49 -40 -15 9 -14 26 5 46 17 19 44
15 44 -6z m2150 -45 c-8 -5 -22 -10 -30 -10 -13 0 -13 1 0 10 8 5 22 10 30 10
13 0 13 -1 0 -10z m-2171 -72 c-39 -34 -89 -58 -119 -58 -23 0 -27 25 -5 34 8
3 15 12 15 20 0 9 16 20 38 26 20 5 44 14 51 19 10 6 22 6 35 -1 19 -10 18
-12 -15 -40z m2470 12 c26 -11 24 -30 -2 -30 -41 0 -57 10 -57 36 0 22 2 23
23 13 12 -7 28 -15 36 -19z m-1389 -34 c0 -3 -4 -8 -10 -11 -5 -3 -10 -1 -10
4 0 6 5 11 10 11 6 0 10 -2 10 -4z m-1611 -30 c-2 -2 -16 -7 -32 -11 -21 -6
-27 -4 -27 8 0 17 39 28 54 15 5 -4 8 -10 5 -12z m566 -16 c3 -5 -3 -10 -14
-10 -13 0 -31 -15 -48 -41 -46 -69 -113 -86 -113 -28 0 27 65 72 96 66 16 -3
28 0 31 9 6 16 39 19 48 4z m-799 -37 c-4 -4 -11 -1 -16 7 -16 25 -11 35 7 17
9 -9 13 -20 9 -24z m254 16 c0 -13 -20 -33 -49 -48 -33 -18 -37 -7 -10 27 24
28 59 40 59 21z m3560 -54 c-7 -8 -10 -22 -6 -30 4 -12 -6 -15 -63 -15 -50 0
-70 4 -74 14 -9 23 14 35 78 39 33 2 64 4 69 5 5 1 3 -5 -4 -13z m-3345 -57
c17 -5 38 -14 48 -19 13 -7 17 -5 17 6 0 8 4 15 10 15 5 0 8 -10 6 -22 -2 -19
-10 -24 -42 -26 -21 -2 -43 -7 -49 -12 -7 -5 -24 5 -45 26 -28 29 -31 37 -20
45 8 5 22 6 30 3 8 -3 29 -10 45 -16z m2781 -2 c15 -12 17 -19 8 -33 -23 -39
-116 -60 -148 -34 -15 12 -11 47 7 58 36 22 108 27 133 9z m-2011 -12 c20 -13
24 -24 23 -55 -1 -36 -3 -38 -30 -32 -16 3 -28 1 -28 -5 0 -5 9 -8 20 -5 11 3
20 0 20 -6 0 -6 -12 -11 -27 -11 -22 0 -25 -2 -13 -10 13 -8 13 -10 -2 -10 -9
0 -20 5 -23 10 -5 8 -11 7 -21 -1 -11 -9 -18 -9 -26 -1 -9 9 -7 12 7 12 14 0
16 3 7 12 -8 8 -15 8 -28 -3 -15 -12 -16 -12 -9 10 5 16 4 21 -4 17 -12 -8
-32 33 -24 48 8 13 86 46 111 46 12 0 34 -7 47 -16z m113 -27 c8 -10 6 -16 -9
-25 -16 -10 -24 -9 -45 4 -19 13 -22 19 -12 25 20 13 54 11 66 -4z m-1003 -15
c1 -4 4 -17 8 -28 10 -30 -30 -99 -48 -84 -25 21 -25 63 2 98 22 29 37 35 38
14z m369 -16 c-17 -79 -40 -101 -46 -43 -3 28 -7 32 -35 35 -64 6 -33 38 38
39 l50 1 -7 -32z m-1304 4 c49 -25 51 -40 6 -40 -103 0 -169 30 -98 46 15 3
32 7 37 9 6 2 11 4 13 4 1 1 21 -8 42 -19z m615 0 c-3 -5 -20 -10 -36 -10 -18
0 -28 4 -24 10 3 6 20 10 36 10 18 0 28 -4 24 -10z m3552 -19 c23 -30 15 -66
-28 -115 -45 -51 -64 -54 -64 -11 0 27 -3 29 -45 33 -57 4 -110 19 -133 36
-16 13 -16 15 10 45 31 36 59 40 68 11 5 -15 15 -20 39 -20 28 0 37 -6 50 -32
l17 -33 -5 38 c-9 67 52 99 91 48z m129 -6 c9 -21 -14 -45 -43 -45 -28 0 -40
24 -23 45 16 19 59 19 66 0z m-3466 -65 c0 -11 -4 -20 -10 -20 -5 0 -10 2 -10
4 0 2 -3 11 -6 20 -4 11 -1 16 10 16 9 0 16 -8 16 -20z m817 -6 c-3 -3 -12 -4
-19 -1 -8 3 -5 6 6 6 11 1 17 -2 13 -5z m59 -3 c-3 -5 94 -9 221 -9 229 0 242
-3 243 -38 0 -24 -82 -77 -124 -80 -92 -7 -353 -7 -376 0 -65 19 -99 40 -109
66 -5 16 -7 31 -4 34 4 3 35 6 70 6 49 0 63 3 63 15 0 8 5 15 11 15 5 0 8 -4
5 -9z m1910 -12 c3 -6 15 -8 26 -5 21 5 78 -41 78 -63 0 -14 -5 -14 -40 4 -26
13 -30 13 -38 -1 -8 -14 -13 -14 -50 5 -23 12 -42 27 -42 34 0 30 51 50 66 26z
m-2086 -24 c0 -9 -6 -12 -15 -9 -8 4 -15 10 -15 15 0 5 7 9 15 9 8 0 15 -7 15
-15z m3341 5 c6 0 7 -4 4 -10 -7 -12 -55 -13 -55 -2 0 15 13 23 28 17 7 -3 18
-5 23 -5z m-3531 -54 c0 -31 -18 -43 -36 -24 -19 18 -8 48 17 48 13 0 19 -7
19 -24z m-705 -5 c0 -8 -8 -19 -17 -25 -22 -13 -44 5 -34 29 7 20 51 16 51 -4z
m1121 -70 c-9 -15 22 -21 51 -10 17 6 36 6 53 1 18 -7 34 -6 50 3 15 8 35 10
58 4 19 -4 46 -3 59 2 13 5 33 9 44 9 18 0 18 -2 -6 -26 -35 -35 -48 -70 -35
-94 13 -23 13 -70 0 -90 -6 -10 -4 -20 6 -31 8 -9 14 -23 12 -30 -3 -14 10
-15 47 -5 11 4 26 2 33 -3 12 -7 11 -13 -2 -38 -8 -17 -12 -40 -9 -51 9 -37
-19 -34 -111 12 -49 25 -92 43 -96 41 -4 -2 -15 -26 -25 -52 -10 -26 -25 -57
-34 -68 -9 -11 -23 -32 -30 -47 -12 -23 -12 -31 3 -53 9 -14 25 -25 37 -25 11
0 22 -7 26 -16 3 -8 16 -20 29 -25 29 -10 31 -25 5 -39 -11 -5 -27 -17 -36
-26 -20 -21 -59 -11 -88 22 -60 68 -97 98 -155 125 -34 16 -66 29 -71 29 -5 0
-14 7 -22 16 -7 9 -30 23 -51 31 -21 8 -38 20 -38 26 0 6 -3 8 -6 4 -4 -3 -20
1 -37 9 -23 12 -27 18 -16 25 19 12 57 11 61 -1 4 -13 109 -24 143 -16 15 4
59 39 97 78 70 70 71 70 114 64 39 -5 44 -3 44 14 0 27 -64 73 -119 85 -42 9
-46 13 -54 48 -13 53 -3 60 69 48 70 -11 81 -7 27 9 -46 14 -77 50 -42 50 11
0 18 -4 15 -9z m1699 -81 c4 -6 -1 -23 -10 -37 -15 -23 -19 -24 -27 -9 -19 33
17 78 37 46z m-3445 -15 c0 -8 -7 -15 -16 -15 -14 0 -14 3 -4 15 7 8 14 15 16
15 2 0 4 -7 4 -15z m5015 -26 c9 -17 15 -38 13 -47 -3 -13 -8 -9 -21 15 -16
30 -22 63 -12 63 2 0 12 -14 20 -31z m-2619 -10 l29 -31 -30 -24 c-35 -28 -42
-27 -68 8 -28 38 -16 67 34 77 3 0 18 -13 35 -30z m2139 -7 c5 -12 22 -27 37
-33 45 -19 31 -49 -23 -49 -14 0 -19 7 -19 29 0 16 -6 31 -15 35 -18 7 -21 49
-2 44 6 -3 16 -14 22 -26z m314 -23 c13 -29 33 -54 46 -59 12 -5 25 -15 28
-24 3 -8 28 -48 55 -89 27 -41 47 -79 43 -85 -9 -14 -150 -37 -160 -26 -4 5
-20 41 -36 79 -20 53 -28 90 -29 150 -1 44 0 86 2 93 8 25 28 10 51 -39z
m-963 -25 c-5 -13 -10 -14 -18 -6 -6 6 -8 18 -4 28 5 13 10 14 18 6 6 -6 8
-18 4 -28z m-3593 -29 c10 -27 26 -58 35 -68 16 -18 15 -20 -3 -33 -27 -20
-42 -17 -56 9 -7 12 -25 38 -41 57 -32 40 -35 57 -10 76 32 25 55 13 75 -41z
m3531 33 c9 -12 16 -26 16 -30 0 -5 -27 -8 -60 -8 -66 0 -79 15 -38 44 32 22
64 20 82 -6z m-2961 -50 c11 -5 33 -11 50 -14 16 -2 47 -15 69 -29 21 -14 55
-29 76 -34 20 -5 31 -9 24 -10 -7 -1 -10 -6 -7 -12 5 -7 2 -7 -11 0 -35 19
-139 43 -204 47 -36 2 -59 1 -52 -2 19 -9 14 -24 -7 -24 -11 0 -23 -4 -26 -10
-3 -5 -21 -10 -39 -10 -17 0 -37 -5 -42 -10 -7 -7 -25 -8 -55 -1 -28 6 -48 6
-53 0 -6 -5 -18 -9 -28 -9 -10 0 -18 -3 -18 -8 0 -4 -16 -12 -36 -18 -30 -10
-34 -9 -29 4 3 8 0 21 -6 28 -6 8 -8 14 -3 15 5 1 24 2 42 4 56 5 81 45 29 45
-21 1 -21 1 -3 11 14 9 21 8 27 -2 7 -11 11 -11 17 -2 7 12 58 25 136 37 21 4
46 10 55 15 17 10 64 4 94 -11z m-368 -58 c-3 -5 -11 -10 -16 -10 -6 0 -7 5
-4 10 3 6 11 10 16 10 6 0 7 -4 4 -10z m3265 -11 c0 -21 -25 -32 -65 -30 -16
1 -54 -3 -82 -7 -59 -10 -64 -5 -30 25 24 23 46 28 124 28 43 0 53 -3 53 -16z
m-2621 -16 c6 -10 11 -12 11 -5 0 18 20 15 20 -4 0 -11 6 -14 20 -9 14 4 20 2
20 -9 0 -17 51 -56 73 -56 9 0 23 -8 33 -17 9 -10 44 -31 77 -48 49 -24 61
-35 64 -58 5 -37 -16 -43 -64 -18 -50 27 -73 46 -73 60 0 6 -5 11 -10 11 -6 0
-33 16 -61 35 -55 37 -74 43 -82 23 -4 -8 -8 -4 -12 10 -5 14 -15 22 -31 22
-12 0 -26 5 -29 10 -3 6 2 10 12 10 10 0 14 3 8 8 -6 4 -12 17 -12 30 -2 26
22 30 36 5z m1196 7 c3 -5 1 -10 -4 -10 -6 0 -11 5 -11 10 0 6 2 10 4 10 3 0
8 -4 11 -10z m130 1 c3 -5 1 -13 -5 -16 -15 -9 -43 3 -35 15 8 13 32 13 40 1z
m935 -37 c0 -8 -8 -14 -19 -14 -14 0 -17 6 -13 25 3 20 7 23 18 14 8 -6 14
-18 14 -25z m120 -12 l0 -27 105 3 c58 2 105 0 105 -5 0 -23 -36 -54 -74 -64
-37 -9 -42 -14 -39 -33 5 -23 13 -24 130 -17 7 1 22 19 33 41 21 41 29 46 46
31 16 -15 122 13 152 41 63 59 112 72 112 31 0 -22 -97 -143 -115 -143 -7 0
-23 -8 -36 -19 -18 -13 -46 -20 -109 -23 -52 -3 -97 -11 -117 -21 -25 -13 -37
-14 -62 -6 -17 6 -31 15 -31 21 0 6 -7 7 -15 4 -11 -4 -17 3 -22 25 -3 17 -23
48 -46 69 -21 21 -37 43 -33 48 3 5 -12 12 -34 16 -48 8 -54 33 -13 58 35 21
63 8 63 -30z m680 35 c0 -7 -7 -22 -15 -33 -8 -10 -15 -22 -15 -26 0 -13 38
-9 75 6 22 10 37 11 41 5 3 -6 11 -8 17 -6 18 7 67 -25 82 -53 12 -23 19 -69
16 -112 -1 -10 -12 -20 -26 -24 -13 -3 -36 -22 -51 -41 -15 -20 -32 -32 -40
-29 -10 4 -14 -3 -14 -23 0 -16 -7 -34 -15 -41 -8 -7 -15 -19 -15 -26 0 -8 -4
-14 -10 -14 -5 0 -10 -5 -10 -11 0 -7 10 -9 26 -5 21 6 25 4 22 -11 -2 -10
-14 -19 -28 -21 -14 -2 -44 -10 -68 -18 -23 -8 -65 -14 -92 -14 -61 0 -61 4
-20 107 33 83 33 83 21 83 -5 0 -18 -22 -30 -50 -21 -50 -75 -135 -90 -145 -5
-3 -19 3 -31 13 -19 15 -21 22 -12 39 15 27 38 99 47 143 18 87 81 190 164
267 58 55 71 62 71 40z m-860 -39 c0 -4 -9 -8 -20 -8 -21 0 -24 8 -13 36 6 16
7 16 20 -2 7 -10 13 -21 13 -26z m-2418 22 c4 -29 1 -35 -22 -41 l-25 -6 28
-12 c16 -6 25 -16 22 -21 -3 -6 -40 -26 -82 -46 -62 -29 -80 -33 -102 -25 -25
9 -25 9 -3 10 15 1 26 10 32 27 14 36 13 39 -17 51 l-28 10 30 12 c16 7 43 18
60 26 60 27 104 33 107 15z m-471 -33 c-6 -8 -8 -17 -4 -20 8 -9 -10 -9 -31
-1 -15 6 -15 8 1 20 24 18 49 19 34 1z m2179 -2 c0 -8 -7 -15 -15 -15 -9 0
-12 6 -9 15 4 8 10 15 15 15 5 0 9 -7 9 -15z m70 -19 c0 -3 -4 -8 -10 -11 -5
-3 -10 -1 -10 4 0 6 5 11 10 11 6 0 10 -2 10 -4z m-2300 -26 c0 -5 -7 -10 -16
-10 -8 0 -12 5 -9 10 3 6 10 10 16 10 5 0 9 -4 9 -10z m340 6 c0 -2 -7 -6 -15
-10 -8 -3 -15 -1 -15 4 0 6 7 10 15 10 8 0 15 -2 15 -4z m-50 -26 c0 -5 -4
-10 -9 -10 -6 0 -13 5 -16 10 -3 6 1 10 9 10 9 0 16 -4 16 -10z m2229 -44 c5
-17 12 -39 16 -48 4 -11 3 -18 -3 -18 -14 0 -60 91 -54 108 6 20 30 -4 41 -42z
m-2436 29 c-3 -9 -8 -14 -10 -11 -3 3 -2 9 2 15 9 16 15 13 8 -4z m1999 5 c3
-10 -95 -150 -105 -150 -5 0 -7 15 -4 35 3 19 2 35 -4 35 -5 0 -9 12 -9 28 0
21 7 30 30 40 16 8 33 11 38 8 4 -2 14 -1 22 4 15 10 31 9 32 0z m238 -48 c0
-9 9 -28 20 -42 27 -34 26 -38 -21 -50 -30 -8 -44 -8 -55 1 -8 7 -29 9 -49 6
-19 -3 -35 -2 -35 2 0 13 25 38 57 56 26 15 34 16 47 6 14 -12 16 -9 16 18 0
19 4 30 10 26 6 -3 10 -14 10 -23z m-1760 -1 c0 -11 -69 -33 -80 -26 -5 3 -10
-1 -10 -9 0 -13 10 -15 51 -11 64 6 90 -12 58 -41 -39 -35 -134 -58 -123 -29
8 20 1 19 -46 -5 -22 -11 -43 -19 -47 -18 -5 0 -16 -2 -25 -6 -39 -17 -38 2 1
27 23 15 45 26 49 24 4 -3 21 9 37 25 20 20 24 27 10 20 -11 -5 -33 -14 -50
-19 -16 -6 -37 -14 -46 -17 -12 -5 -16 -2 -15 14 1 16 14 27 51 42 28 11 56
23 63 26 18 9 122 11 122 3z m-360 -40 c0 -13 -28 -22 -35 -11 -3 4 1 11 7 13
20 8 28 8 28 -2z m3850 2 c-1 -5 -7 -30 -14 -57 -9 -35 -15 -44 -19 -32 -11
28 -8 71 5 84 13 13 28 16 28 5z m-3740 -27 c0 -3 -4 -8 -10 -11 -5 -3 -10 -1
-10 4 0 6 5 11 10 11 6 0 10 -2 10 -4z m847 -2 c-3 -3 -12 -4 -19 -1 -8 3 -5
6 6 6 11 1 17 -2 13 -5z m2260 -120 c-21 -22 -28 -24 -46 -15 -37 20 -21 48
29 53 44 4 48 -4 17 -38z m-1809 14 c7 -7 12 -20 12 -30 0 -25 36 -58 63 -58
16 0 28 -9 35 -25 9 -18 19 -25 41 -25 16 0 33 -5 36 -10 4 -6 12 -4 21 5 17
17 34 12 34 -11 0 -8 5 -14 11 -14 7 0 9 10 5 25 -7 26 11 65 30 65 7 0 15
-16 18 -35 4 -19 14 -39 24 -44 15 -8 14 -12 -11 -31 -15 -12 -27 -29 -27 -38
0 -22 -49 -45 -66 -31 -6 5 -15 24 -18 42 -6 31 -8 32 -58 36 -88 6 -172 4
-199 -3 -24 -7 -28 -4 -48 43 -12 29 -20 55 -17 60 3 4 26 8 51 9 26 0 49 3
53 6 9 9 -28 33 -70 46 -21 6 -38 15 -38 20 0 14 104 12 118 -2z m306 -22 c-3
-14 -12 -26 -20 -26 -19 0 -18 11 3 37 22 26 26 23 17 -11z m2066 -40 l-21
-21 7 30 c8 35 27 52 32 28 2 -8 -6 -25 -18 -37z m-936 1 c7 -28 -3 -67 -18
-68 -6 0 -25 -2 -42 -4 -20 -3 -36 1 -44 10 -7 8 -20 15 -29 15 -11 0 -3 13
25 39 33 31 46 37 71 34 21 -4 33 -12 37 -26z m-2541 16 c-7 -2 -21 -2 -30 0
-10 3 -4 5 12 5 17 0 24 -2 18 -5z m66 -2 c9 -6 5 -8 -13 -8 -14 0 -26 3 -26
8 0 11 21 11 39 0z m551 -21 c0 -5 -12 -10 -26 -10 -14 0 -23 4 -19 10 3 6 15
10 26 10 10 0 19 -4 19 -10z m-600 -11 c0 -7 10 -9 24 -7 33 7 55 -27 23 -36
-35 -9 -69 -7 -62 4 3 6 -3 10 -14 10 -24 0 -26 5 -8 25 15 17 37 19 37 4z
m2598 -30 l-3 -24 -13 23 c-7 12 -10 27 -6 33 10 17 26 -6 22 -32z m-2054 9
c-4 -6 0 -14 7 -19 10 -6 7 -9 -11 -10 -39 -2 -52 2 -77 21 -21 16 -21 19 -6
22 32 6 93 -4 87 -14z m3324 -10 c13 -18 24 -90 15 -104 -5 -6 -18 -16 -30
-23 -15 -7 -23 -21 -23 -37 0 -16 -5 -24 -12 -21 -7 2 -11 11 -9 18 5 15 5 37
2 79 -3 33 21 100 35 100 6 0 16 -6 22 -12z m-3900 -25 c2 -7 -5 -13 -15 -14
-14 0 -15 -2 -3 -6 8 -3 19 -12 23 -19 4 -8 17 -14 28 -14 11 0 17 -4 14 -10
-9 -15 -77 -11 -99 5 -19 14 -18 15 10 16 l29 2 -28 4 c-18 3 -25 8 -20 16 4
7 8 15 9 20 1 4 2 10 3 13 2 10 44 -1 49 -13z m4044 -21 c5 -5 10 -35 11 -66
3 -63 7 -60 -85 -71 -42 -5 -48 -3 -48 13 0 26 20 42 51 42 38 0 44 15 14 34
-16 11 -25 26 -25 43 0 24 2 25 37 20 20 -4 40 -10 45 -15z m-2204 -13 c-2 -6
-8 -10 -13 -10 -5 0 -11 4 -13 10 -2 6 4 11 13 11 9 0 15 -5 13 -11z m-193
-10 c4 -5 21 -9 38 -7 46 4 48 -25 3 -54 -39 -25 -43 -37 -24 -71 15 -27 20
-57 10 -57 -4 1 -29 20 -56 44 l-49 43 23 34 c19 26 20 31 7 26 -9 -3 -17 -2
-17 3 0 6 4 10 9 10 5 0 11 9 14 20 5 21 31 27 42 9z m135 1 c0 -5 -9 -10 -21
-10 -11 0 -17 5 -14 10 3 6 13 10 21 10 8 0 14 -4 14 -10z m619 -17 c15 -30
39 -136 46 -203 l6 -65 -16 40 c-22 57 -64 245 -54 245 5 0 12 -8 18 -17z
m148 -189 c-2 -108 0 -188 3 -178 10 29 17 -5 9 -46 -3 -19 -7 -29 -8 -21 0 8
-7 19 -15 25 -20 16 -58 219 -51 270 4 28 0 57 -14 93 l-19 52 42 3 c22 2 44
2 48 0 4 -1 6 -91 5 -198z m87 179 c-10 -40 -14 -41 -14 -5 0 18 5 32 10 32 6
0 8 -11 4 -27z m-1989 7 c3 -5 -1 -10 -9 -10 -9 0 -16 5 -16 10 0 6 4 10 9 10
6 0 13 -4 16 -10z m2600 -21 c-8 -12 -35 -12 -35 0 0 11 22 20 33 14 4 -2 5
-9 2 -14z m-3213 -8 c12 -2 37 -61 28 -66 -15 -9 -92 13 -109 31 -15 16 -15
16 3 10 13 -4 17 -2 13 8 -9 23 5 27 65 17z m1528 -78 c0 -22 5 -33 15 -33 19
0 55 -71 55 -110 0 -36 -23 -37 -28 -3 -2 12 -12 29 -23 39 -17 16 -22 16 -30
4 -16 -25 -28 7 -23 62 4 55 -2 62 -17 18 -6 -16 -17 -30 -25 -30 -9 0 -13 -9
-12 -27 5 -52 -13 -143 -28 -143 -17 0 -18 37 -3 77 7 20 7 39 -1 69 -12 42
-12 42 -32 22 -13 -13 -16 -23 -10 -31 5 -7 10 -43 10 -80 0 -63 -2 -69 -25
-78 -36 -14 -47 -11 -62 13 -20 31 -32 90 -21 103 4 5 13 26 18 45 7 25 10 29
11 13 1 -27 9 -28 39 -7 15 10 22 25 22 48 0 40 8 50 28 34 21 -18 45 -16 60
5 7 9 23 17 35 17 15 0 18 3 10 11 -9 9 -9 16 0 31 11 18 13 17 24 -9 7 -15
12 -43 13 -60z m305 67 c6 0 9 -17 7 -41 -3 -22 1 -46 7 -52 14 -14 14 -57 0
-57 -8 0 -9 -12 -4 -37 l7 -38 -24 23 c-13 12 -33 22 -43 22 -44 0 -78 82 -40
96 10 4 13 13 9 26 -9 29 23 71 49 64 12 -3 27 -6 32 -6z m-404 -41 c-5 -13
-10 -19 -10 -12 -1 15 10 45 15 40 3 -2 0 -15 -5 -28z m2673 16 c-7 -16 -49
-21 -58 -6 -7 11 10 19 41 20 16 1 21 -3 17 -14z m-2154 -7 c0 -28 -18 -39
-55 -36 -53 4 -54 23 -3 35 59 14 58 14 58 1z m-1314 -26 c-22 -5 -30 3 -21
18 5 8 11 7 22 -2 15 -12 14 -13 -1 -16z m1928 -102 c-4 -52 -13 -106 -21
-120 -13 -24 -14 -23 -6 15 4 22 8 74 9 115 1 110 2 118 14 100 6 -9 7 -54 4
-110z m-2639 70 c-3 -5 -16 -10 -28 -9 -21 0 -21 1 -2 9 28 12 37 12 30 0z
m52 4 c-3 -3 -12 -4 -19 -1 -8 3 -5 6 6 6 11 1 17 -2 13 -5z m2010 -35 c-4
-32 -1 -42 14 -52 20 -13 25 -42 9 -52 -5 -3 -26 7 -45 22 -29 23 -34 33 -30
55 5 22 2 27 -16 30 -12 2 -24 8 -26 15 -4 11 17 18 71 20 28 2 28 1 23 -38z
m1642 -63 c26 -27 26 -80 1 -82 -30 -2 -32 -4 -20 -19 19 -23 4 -18 -24 9 -26
23 -35 66 -15 66 6 0 8 7 5 16 -15 39 20 45 53 10z m-2089 -37 c0 -11 -4 -17
-10 -14 -5 3 -10 15 -10 26 0 11 5 17 10 14 6 -3 10 -15 10 -26z m380 -4 c0
-13 -3 -13 -20 -3 -11 7 -20 19 -20 26 0 10 5 10 20 2 11 -6 20 -17 20 -25z
m165 -12 c-22 -43 -50 -65 -77 -60 -22 4 -22 5 -3 11 11 4 33 28 48 53 32 52
58 49 32 -4z m-1763 17 c10 0 18 -7 18 -15 0 -8 5 -15 10 -15 6 0 10 -7 10
-16 0 -8 4 -13 10 -9 5 3 18 -12 30 -35 11 -22 24 -40 29 -40 4 0 16 -20 25
-43 16 -42 77 -114 63 -74 -4 9 -2 17 4 17 7 0 9 -11 7 -24 -4 -18 1 -28 19
-37 23 -13 31 -29 13 -29 -5 0 -10 -4 -10 -10 0 -5 9 -10 21 -10 15 0 19 -4
14 -19 -3 -11 -1 -22 5 -26 5 -3 10 -15 10 -25 0 -10 8 -24 18 -29 9 -6 13
-11 9 -11 -4 0 -3 -9 3 -20 6 -11 14 -19 18 -19 25 4 39 -5 51 -33 18 -41 14
-148 -4 -167 -12 -12 -12 -16 3 -28 15 -12 16 -14 1 -25 -16 -13 -28 -51 -33
-103 -1 -16 -8 -40 -14 -51 -6 -12 -8 -24 -5 -28 3 -3 1 -6 -5 -6 -7 0 -12
-14 -12 -30 0 -18 -6 -33 -15 -36 -8 -4 -15 -12 -15 -19 0 -7 -8 -15 -17 -19
-10 -3 -34 -15 -53 -27 -27 -17 -48 -21 -95 -19 -65 2 -287 0 -320 -3 -12 -1
-20 4 -20 13 0 8 -8 26 -17 39 -10 13 -15 28 -13 32 3 4 -2 9 -10 13 -8 3 -15
16 -15 28 -1 25 -22 58 -37 58 -5 0 -35 24 -66 53 -100 92 -121 110 -153 123
-17 7 -36 20 -44 28 -7 9 -21 16 -31 16 -11 0 -19 4 -19 10 0 11 -45 35 -102
56 -24 8 -36 9 -32 3 4 -8 -3 -9 -22 -5 -16 3 -46 8 -66 12 -21 3 -38 10 -38
15 0 5 -7 9 -16 9 -25 0 -10 -25 17 -28 13 -2 31 -9 39 -16 8 -6 27 -18 43
-26 46 -23 30 -29 -23 -9 -28 10 -59 19 -70 19 -43 0 -16 -18 64 -44 48 -16
123 -52 173 -83 99 -62 98 -62 -45 2 -57 25 -109 45 -115 44 -7 -1 -25 3 -40
9 -41 17 -55 15 -27 -5 14 -9 28 -21 31 -26 4 -6 17 -7 29 -4 17 4 19 3 10 -8
-7 -8 -15 -14 -18 -13 -4 0 -11 -1 -17 -2 -34 -6 -143 4 -166 16 -15 7 -36 11
-46 7 -23 -9 -73 -61 -73 -77 0 -6 22 -35 49 -65 40 -46 52 -53 75 -49 14 3
29 1 32 -3 3 -5 0 -9 -5 -9 -6 0 -11 -4 -11 -10 0 -5 7 -10 15 -10 7 0 18 -8
24 -17 5 -10 12 -17 15 -15 16 6 25 0 20 -13 -4 -10 0 -15 15 -15 12 0 33 -11
46 -25 16 -18 25 -22 28 -13 4 10 6 11 6 0 1 -20 -28 -26 -57 -11 -15 7 -50
37 -79 65 -48 48 -53 51 -59 32 -5 -16 2 -28 25 -50 17 -16 31 -34 31 -41 0
-7 12 -20 28 -30 15 -9 41 -26 58 -37 49 -32 129 -48 268 -56 124 -7 127 -7
133 15 3 11 9 21 13 21 5 0 11 27 15 61 l7 61 35 -7 c33 -6 34 -5 28 17 -9 28
-25 49 -86 108 -52 51 -89 80 -103 80 -5 0 -7 3 -4 6 12 11 64 -25 134 -92 85
-83 149 -198 138 -248 -6 -28 -5 -29 10 -13 36 36 60 7 53 -63 -6 -60 -14 -72
-31 -48 -7 10 -30 25 -50 33 -20 9 -34 19 -31 24 2 5 -1 11 -9 14 -8 3 -48
-30 -100 -84 -92 -95 -166 -149 -234 -170 -23 -6 -42 -15 -42 -20 0 -17 91 16
165 59 111 66 259 134 277 127 15 -6 38 -85 39 -135 3 -166 7 -218 17 -237 7
-12 12 -47 12 -77 0 -57 4 -62 47 -57 6 1 20 -12 29 -29 10 -16 23 -30 30 -30
6 0 19 -9 28 -19 10 -11 42 -30 72 -43 l54 -23 -6 -60 c-4 -33 -11 -66 -17
-72 -6 -9 -6 -18 3 -28 16 -19 3 -55 -21 -55 -10 0 -19 -3 -19 -7 0 -12 -53
-34 -59 -24 -3 4 -14 8 -24 8 -12 0 -16 -6 -11 -19 3 -10 0 -18 -6 -18 -12 0
-68 -39 -110 -77 -14 -13 -28 -23 -32 -23 -5 0 -8 -6 -8 -13 0 -7 -18 -23 -40
-37 -22 -14 -40 -30 -40 -37 0 -7 -6 -10 -13 -7 -8 3 -26 -8 -42 -23 l-28 -28
7 35 c4 19 10 42 12 52 3 9 0 19 -5 23 -10 6 35 106 51 113 4 2 4 10 1 18 -3
8 1 14 9 14 10 0 13 16 13 58 0 37 6 67 16 83 9 13 20 40 24 58 4 19 20 52 36
74 16 22 29 48 29 58 0 10 6 24 14 32 9 9 11 19 5 28 -7 12 -9 11 -9 -2 0 -20
-20 -29 -60 -29 -34 0 -47 15 -24 28 9 5 14 14 10 21 -9 14 -21 14 -38 -1 -17
-17 -78 -38 -107 -38 -14 0 -25 -7 -28 -19 -3 -11 -16 -22 -29 -25 -13 -4 -24
-13 -24 -21 0 -20 -6 -19 -39 4 -15 11 -40 23 -57 27 -16 4 -34 11 -41 16 -7
5 -16 7 -22 4 -5 -3 -11 0 -14 6 -2 7 -7 10 -11 6 -9 -8 17 -60 38 -77 9 -8
16 -21 15 -30 0 -10 -2 -11 -6 -3 -2 6 -12 12 -21 12 -8 0 -23 7 -32 15 -10 9
-27 17 -39 20 -24 4 -104 26 -206 55 -38 10 -81 20 -95 20 -14 0 -45 11 -69
25 -23 14 -50 25 -59 25 -19 0 -62 -39 -62 -56 0 -19 21 -29 30 -14 6 10 15 8
39 -9 17 -12 31 -20 31 -17 0 10 59 -57 145 -164 39 -49 120 -122 150 -135
l30 -13 -28 -11 c-30 -11 -28 -31 2 -31 9 0 26 -7 37 -15 25 -19 54 -19 54 0
0 19 17 19 50 0 14 -8 46 -14 73 -15 51 0 55 -3 31 -27 -12 -12 -14 -27 -9
-60 4 -28 2 -43 -4 -43 -6 0 -11 5 -11 10 0 14 -37 13 -42 -2 -7 -19 -68 24
-75 52 -8 34 -52 69 -85 70 -16 0 -28 5 -28 10 0 6 -11 10 -25 10 -14 0 -25
-5 -25 -10 0 -6 -8 -5 -20 2 -25 16 -32 8 -24 -32 7 -33 75 -108 139 -151 18
-13 40 -40 49 -60 11 -24 25 -39 42 -43 19 -5 24 -11 19 -25 -4 -13 0 -20 15
-24 11 -3 20 -1 20 4 0 4 7 6 16 2 13 -5 12 -7 -4 -17 -11 -6 -31 -19 -46 -30
-69 -49 -192 -61 -274 -26 -86 36 -286 109 -290 105 -5 -4 20 -48 33 -57 9 -7
-24 -12 -62 -11 -7 1 -13 -6 -13 -14 0 -8 4 -12 9 -9 10 7 23 -19 14 -28 -4
-3 -16 -6 -29 -6 -21 0 -84 -46 -84 -62 0 -5 11 -8 25 -8 14 0 25 -4 25 -9 0
-18 -52 -71 -70 -71 -11 0 -20 -10 -24 -25 -4 -14 -11 -25 -16 -25 -14 0 -12
-27 3 -34 9 -5 8 -8 -3 -13 -8 -3 -28 -19 -43 -35 -16 -15 -33 -28 -38 -28 -5
0 -9 -9 -9 -19 0 -15 -10 -21 -40 -26 -34 -6 -40 -11 -40 -31 0 -16 -6 -24
-17 -24 -10 0 -28 -3 -40 -6 -17 -5 -23 -2 -23 10 0 9 7 16 16 16 8 0 12 5 9
10 -10 17 -21 11 -34 -17 l-13 -28 -28 33 c-23 28 -29 48 -39 135 -18 159 -20
169 -30 217 -5 25 -7 49 -4 54 4 5 1 6 -5 2 -9 -5 -12 35 -12 153 0 153 1 161
19 161 11 0 23 -5 26 -11 4 -5 18 -15 32 -20 14 -5 27 -18 30 -29 3 -11 12
-20 19 -20 8 0 14 -4 14 -9 0 -5 18 -16 40 -25 22 -9 40 -23 40 -31 0 -8 7
-15 15 -15 11 0 15 11 15 40 0 22 5 40 10 40 13 0 13 66 -1 91 -6 12 -8 27 -5
35 4 11 12 10 43 -8 21 -13 47 -31 58 -41 33 -31 75 -59 75 -50 0 12 -63 85
-148 173 -39 41 -72 78 -72 84 0 5 -10 23 -23 40 -41 55 -134 259 -151 332
-12 49 -16 92 -12 145 3 41 6 88 6 105 0 17 8 42 18 55 9 13 24 42 31 63 8 22
33 68 56 102 24 34 48 78 54 97 14 42 85 180 112 218 10 15 19 32 19 38 0 6 4
11 9 11 5 0 14 12 20 28 6 15 24 42 40 60 24 29 29 31 41 18 21 -26 30 -18 30
27 0 37 6 49 50 95 45 48 52 52 72 41 25 -13 24 -11 -22 46 -9 11 -21 32 -28
48 -11 27 -11 27 16 21 15 -4 36 -15 48 -25 24 -23 62 -24 88 -4 11 8 28 15
38 15 11 0 18 7 18 19 0 11 6 21 13 24 24 8 -14 37 -49 37 -19 0 -34 5 -34 10
0 6 7 10 15 10 8 0 15 5 15 11 0 6 7 17 15 25 8 9 15 27 15 41 0 18 4 24 15
19 9 -3 21 4 31 19 9 14 27 28 39 31 15 4 25 16 29 35 4 21 11 29 26 29 25 0
72 23 89 44 8 9 27 16 43 16 16 0 27 4 24 8 -3 5 20 22 51 38 31 16 61 34 67
39 23 22 129 63 157 61 18 -1 29 3 29 10 0 7 5 16 10 19 6 4 9 1 8 -7 -2 -8 9
-14 32 -16 19 -2 42 -10 50 -17 14 -12 21 -11 49 6 18 11 40 18 48 15 22 -9
64 4 56 18 -4 6 1 5 10 -2 9 -8 22 -12 29 -9 7 2 21 0 31 -5 12 -6 23 -6 31 1
16 14 109 12 118 -3 5 -8 13 -6 25 7 15 14 16 21 5 37 -15 25 -16 38 0 22 7
-7 20 -12 30 -12z m-547 -10 c-3 -5 -10 -10 -16 -10 -5 0 -9 5 -9 10 0 6 7 10
16 10 8 0 12 -4 9 -10z m-65 -34 c0 -3 -4 -8 -10 -11 -5 -3 -10 -1 -10 4 0 6
5 11 10 11 6 0 10 -2 10 -4z m2530 -16 c0 -15 -6 -18 -27 -15 -16 2 -45 4 -65
4 -21 1 -38 5 -38 10 0 9 19 12 108 17 15 1 22 -4 22 -16z m820 0 c0 -5 -5
-10 -11 -10 -5 0 -7 5 -4 10 3 6 8 10 11 10 2 0 4 -4 4 -10z m-3470 -43 c0
-13 -57 -43 -66 -34 -3 2 10 14 28 25 41 25 38 24 38 9z m1881 -20 c-1 -12
-15 -9 -19 4 -3 6 1 10 8 8 6 -3 11 -8 11 -12z m-121 -12 c7 -9 10 -18 7 -21
-10 -11 -37 5 -37 21 0 19 14 19 30 0z m-1805 -651 c19 -16 19 -16 -5 -9 -31
9 -50 25 -29 25 7 0 23 -8 34 -16z m1155 -24 c0 -5 -4 -10 -10 -10 -5 0 -10 5
-10 10 0 6 5 10 10 10 6 0 10 -4 10 -10z m-1003 -46 c-3 -3 -12 -4 -19 -1 -8
3 -5 6 6 6 11 1 17 -2 13 -5z m-287 -55 c0 -6 -4 -7 -10 -4 -5 3 -10 11 -10
16 0 6 5 7 10 4 6 -3 10 -11 10 -16z m230 -105 c0 -17 -27 -25 -56 -18 l-25 7
28 29 c25 27 29 28 40 12 7 -10 13 -23 13 -30z m418 -76 c-9 -5 -4 -8 13 -8
15 0 32 -6 38 -14 10 -12 6 -15 -20 -21 -39 -9 -55 6 -65 60 l-7 40 27 -24
c19 -18 23 -27 14 -33z m82 -8 c0 -5 -4 -10 -10 -10 -5 0 -10 5 -10 10 0 6 5
10 10 10 6 0 10 -4 10 -10z m-605 -12 c14 -6 25 -17 25 -24 0 -10 -10 -9 -45
4 -43 16 -44 19 -8 31 1 1 14 -4 28 -11z m862 -99 c-4 -15 2 -20 32 -24 96
-16 141 -27 147 -36 3 -6 -4 -7 -18 -4 -33 9 -145 10 -196 2 -82 -11 -98 -18
-115 -45 -22 -35 -77 -98 -77 -88 0 11 53 100 62 104 5 2 14 9 21 15 6 7 32
22 57 34 l45 23 -44 -3 c-28 -1 -46 3 -48 11 -3 7 4 12 19 12 13 0 29 4 37 9
8 5 29 9 48 9 29 0 34 -3 30 -19z m-227 1 c0 -5 -6 -10 -14 -10 -8 0 -18 5
-21 10 -3 6 3 10 14 10 12 0 21 -4 21 -10z m1292 -45 c-6 -32 -8 -30 -15 20
-5 35 -4 38 7 22 7 -9 11 -28 8 -42z m-4033 -114 c-14 -21 -49 -45 -56 -37 -9
9 32 55 50 56 14 0 15 -3 6 -19z m3061 -40 c12 -24 4 -48 -21 -61 -23 -13 -66
-13 -74 0 -3 6 -1 10 6 10 17 0 59 40 59 57 0 19 18 16 30 -6z m-295 -119 c58
-52 141 -101 224 -132 90 -33 137 -69 127 -96 -3 -9 -3 -21 1 -27 12 -19 14
-39 8 -74 -6 -36 -35 -47 -35 -14 0 11 -17 34 -37 51 -36 29 -38 29 -41 10 -2
-11 -8 -20 -13 -20 -11 0 -9 -69 3 -76 4 -3 8 -10 8 -16 0 -20 -94 3 -156 37
-55 31 -137 112 -133 132 1 4 -3 22 -10 38 -18 41 -3 215 18 215 3 0 20 -12
36 -28z m736 -80 c-6 -2 -11 -12 -11 -23 0 -10 -4 -19 -10 -19 -14 0 -13 33 1
47 7 7 13 22 14 35 6 56 9 60 12 13 3 -29 0 -51 -6 -53z m717 -27 c0 -29 0
-29 -8 -5 -4 14 -8 36 -8 50 -1 23 0 23 8 5 5 -11 8 -33 8 -50z m-769 -2 c-1
-5 -1 -17 0 -28 1 -17 3 -18 11 -5 17 27 10 0 -11 -42 -11 -22 -42 -64 -67
-92 -26 -28 -33 -39 -17 -25 17 14 43 34 59 44 l30 18 -21 -26 c-73 -93 -242
-197 -319 -197 -24 0 -44 4 -44 9 0 5 -10 11 -22 14 -33 9 -16 18 33 19 81 1
192 60 273 144 47 50 54 70 36 105 -9 15 -6 24 14 44 24 24 47 33 45 18z m101
-18 c0 -8 -4 -15 -10 -15 -5 0 -10 7 -10 15 0 8 5 15 10 15 6 0 10 -7 10 -15z
m35 -5 c3 -5 1 -10 -4 -10 -6 0 -11 5 -11 10 0 6 2 10 4 10 3 0 8 -4 11 -10z
m605 -11 c0 -5 -4 -9 -10 -9 -5 0 -10 7 -10 16 0 8 5 12 10 9 6 -3 10 -10 10
-16z m-1183 -339 c0 -16 -5 -30 -11 -30 -5 0 -2 -6 7 -12 21 -16 7 -44 -18
-34 -13 5 -16 13 -11 37 3 18 6 40 6 50 0 11 6 19 13 19 8 0 14 -12 14 -30z
m-347 -370 c0 -5 -5 -10 -11 -10 -5 0 -7 5 -4 10 3 6 8 10 11 10 2 0 4 -4 4
-10z m-1708 -153 c-2 -10 2 -25 10 -35 9 -9 20 -44 26 -77 6 -33 18 -91 27
-130 12 -52 15 -89 9 -145 -4 -41 -7 -89 -6 -107 0 -19 -5 -34 -15 -37 -18 -7
-44 17 -46 44 -1 11 -5 20 -9 20 -4 0 -8 9 -8 20 0 11 5 20 10 20 6 0 10 9 10
20 0 42 37 16 43 -30 4 -35 4 -34 5 6 2 30 -4 46 -18 59 -11 10 -20 26 -20 36
0 10 -4 20 -9 23 -11 7 -21 63 -24 127 -2 35 1 45 11 41 13 -4 11 -26 -4 -66
-3 -9 -2 -16 4 -16 15 0 25 71 13 83 -6 6 -11 20 -11 32 -1 20 -1 20 -15 1
-13 -17 -15 -17 -15 -4 0 9 6 23 13 30 9 8 11 21 6 33 -4 11 -8 45 -8 75 0 54
0 54 13 25 7 -16 11 -38 8 -48z m1224 -14 c-10 -10 -19 5 -10 18 6 11 8 11 12
0 2 -7 1 -15 -2 -18z m-1408 -215 c2 -10 13 -18 23 -18 11 0 19 -4 19 -10 0
-5 10 -10 21 -10 16 0 20 -5 16 -20 -4 -15 0 -20 14 -20 12 0 19 -7 19 -18 0
-10 7 -27 15 -38 8 -12 12 -24 9 -26 -2 -3 2 -11 11 -18 21 -18 19 -40 -5 -40
-24 0 -62 39 -53 54 4 6 -1 5 -10 -3 -19 -15 -24 -12 -41 21 -7 13 -18 23 -26
23 -23 0 -56 83 -42 105 7 11 7 21 1 27 -6 6 -4 10 7 10 9 0 19 -9 22 -19z
m3517 -279 c11 -17 -1 -21 -15 -4 -8 9 -8 15 -2 15 6 0 14 -5 17 -11z m135
-256 c0 -26 -1 -26 -14 -7 -11 14 -11 21 -3 26 17 11 17 11 17 -19z m-10 -233
c0 -5 -4 -10 -10 -10 -5 0 -10 5 -10 10 0 6 5 10 10 10 6 0 10 -4 10 -10z m0
-120 c0 -5 -2 -10 -4 -10 -3 0 -8 5 -11 10 -3 6 -1 10 4 10 6 0 11 -4 11 -10z
m-25 -78 c-8 -8 -25 10 -19 20 4 6 9 5 15 -3 4 -7 6 -15 4 -17z m235 -242 c0
-5 -7 -10 -16 -10 -8 0 -12 5 -9 10 3 6 10 10 16 10 5 0 9 -4 9 -10z m-53 -6
c-3 -3 -12 -4 -19 -1 -8 3 -5 6 6 6 11 1 17 -2 13 -5z m103 -94 c0 -5 -2 -10
-4 -10 -3 0 -8 5 -11 10 -3 6 -1 10 4 10 6 0 11 -4 11 -10z m48 -222 c-6 -18
-28 -21 -28 -4 0 9 7 16 16 16 9 0 14 -5 12 -12z m152 -222 c0 -3 -4 -8 -10
-11 -5 -3 -10 -1 -10 4 0 6 5 11 10 11 6 0 10 -2 10 -4z m40 -32 c0 -8 -4 -14
-9 -14 -11 0 -22 26 -14 34 9 9 23 -3 23 -20z m57 -91 c-3 -10 -5 -4 -5 12 0
17 2 24 5 18 2 -7 2 -21 0 -30z m113 -473 c0 -5 -9 -10 -20 -10 -11 0 -20 5
-20 10 0 6 9 10 20 10 11 0 20 -4 20 -10z m-57 -45 c-6 -16 -16 -19 -26 -8 -9
8 13 34 24 28 4 -3 6 -12 2 -20z m-1563 -37 c0 -19 -18 -43 -25 -36 -9 9 4 48
16 48 5 0 9 -6 9 -12z m1495 -18 c-20 -22 -35 -26 -35 -10 0 6 7 10 15 10 8 0
15 5 15 10 0 6 5 10 12 10 6 0 3 -9 -7 -20z m-1482 -45 c-7 -21 -13 -19 -13 6
0 11 4 18 10 14 5 -3 7 -12 3 -20z m19 -87 c-8 -8 -9 -4 -5 13 4 13 8 18 11
10 2 -7 -1 -18 -6 -23z m-1518 -54 c5 -14 4 -15 -9 -4 -17 14 -19 20 -6 20 5
0 12 -7 15 -16z m-96 -26 c15 -15 16 -55 1 -64 -15 -9 -28 6 -35 44 -7 34 10
44 34 20z m1348 -25 c-10 -10 -19 5 -10 18 6 11 8 11 12 0 2 -7 1 -15 -2 -18z
m307 -65 c-11 -13 -25 -32 -31 -43 -10 -18 -11 -18 -12 9 0 35 38 82 54 66 6
-6 3 -17 -11 -32z m584 -645 c-3 -10 -5 -4 -5 12 0 17 2 24 5 18 2 -7 2 -21 0
-30z"/>
<path d="M3965 7250 c3 -5 8 -10 11 -10 2 0 4 5 4 10 0 6 -5 10 -11 10 -5 0
-7 -4 -4 -10z"/>
<path d="M2758 7043 c7 -3 16 -2 19 1 4 3 -2 6 -13 5 -11 0 -14 -3 -6 -6z"/>
<path d="M3341 6981 c-8 -6 -9 -11 -3 -15 6 -3 14 -1 17 5 9 14 2 20 -14 10z"/>
<path d="M6394 6893 c-11 -10 -30 -39 -42 -65 -12 -26 -29 -51 -38 -56 -11 -6
-15 -17 -11 -31 3 -14 -1 -26 -14 -35 -12 -8 -19 -24 -19 -42 1 -16 0 -38 -2
-49 -2 -11 3 -21 13 -23 13 -2 19 11 30 59 8 37 21 66 31 73 10 6 18 19 18 29
0 9 14 47 30 84 17 36 29 68 27 70 -2 2 -13 -5 -23 -14z"/>
<path d="M3055 6750 c-4 -6 5 -10 20 -10 15 0 24 4 20 10 -3 6 -12 10 -20 10
-8 0 -17 -4 -20 -10z"/>
<path d="M4421 6464 c0 -11 3 -14 6 -6 3 7 2 16 -1 19 -3 4 -6 -2 -5 -13z"/>
<path d="M3750 5651 c0 -6 5 -13 10 -16 6 -3 10 1 10 9 0 9 -4 16 -10 16 -5 0
-10 -4 -10 -9z"/>
<path d="M2335 5640 c-7 -11 19 -20 34 -10 9 5 7 9 -8 13 -12 3 -23 2 -26 -3z"/>
<path d="M2235 5600 c-3 -5 -2 -10 4 -10 5 0 13 5 16 10 3 6 2 10 -4 10 -5 0
-13 -4 -16 -10z"/>
<path d="M2326 5539 c-25 -20 -53 -19 -81 1 -5 3 -23 6 -40 6 -28 -1 -30 -3
-27 -36 2 -19 4 -68 4 -107 l1 -72 27 37 c71 98 168 172 228 172 6 0 12 5 12
10 0 20 -96 11 -124 -11z m-103 -50 c-5 -5 -14 -4 -22 0 -11 7 -11 13 -1 32
l13 23 9 -24 c5 -13 5 -27 1 -31z m53 0 c10 -17 -13 -36 -27 -22 -12 12 -4 33
11 33 5 0 12 -5 16 -11z"/>
<path d="M2881 4901 c-19 -16 -40 -27 -48 -24 -7 3 -13 1 -13 -5 0 -26 33 -18
72 18 49 45 40 54 -11 11z"/>
<path d="M2800 4840 c-8 -5 -12 -12 -9 -15 8 -8 39 5 39 16 0 11 -11 11 -30
-1z"/>
<path d="M2625 4764 c19 -15 18 -16 -22 -10 -24 3 -44 2 -48 -4 -4 -6 11 -10
37 -10 56 0 85 9 92 26 4 11 -5 14 -37 14 -40 -1 -41 -1 -22 -16z"/>
<path d="M2510 4670 c0 -11 -8 -24 -17 -28 -14 -5 -9 -8 17 -12 33 -5 35 -7
38 -47 2 -24 7 -43 12 -43 5 0 12 -10 16 -22 9 -29 77 -78 106 -78 14 0 0 51
-19 73 -26 28 1 20 42 -13 42 -33 102 -43 91 -14 -3 9 -6 17 -6 20 0 2 -15 11
-32 20 -22 11 -55 17 -96 16 -55 0 -64 2 -78 23 -19 30 -11 79 17 98 26 19 14
27 -43 27 -42 0 -48 -3 -48 -20z"/>
<path d="M3124 4529 c-3 -6 -1 -16 5 -22 8 -8 11 -5 11 11 0 24 -5 28 -16 11z"/>
<path d="M3100 4430 c0 -5 5 -10 10 -10 6 0 10 5 10 10 0 6 -4 10 -10 10 -5 0
-10 -4 -10 -10z"/>
<path d="M2790 4410 c0 -5 5 -10 11 -10 5 0 7 5 4 10 -3 6 -8 10 -11 10 -2 0
-4 -4 -4 -10z"/>
<path d="M2114 4299 c-8 -14 11 -33 25 -25 6 4 11 14 11 22 0 16 -26 19 -36 3z"/>
<path d="M2665 3579 c-4 -6 -5 -13 -2 -16 7 -7 27 6 27 18 0 12 -17 12 -25 -2z"/>
<path d="M1491 3214 c0 -11 3 -14 6 -6 3 7 2 16 -1 19 -3 4 -6 -2 -5 -13z"/>
<path d="M2370 754 c0 -8 5 -12 10 -9 6 4 8 11 5 16 -9 14 -15 11 -15 -7z"/>
<path d="M2170 12683 c0 -13 5 -23 10 -23 13 0 13 11 0 30 -8 12 -10 11 -10
-7z"/>
<path d="M2525 12670 c-6 -10 29 -50 46 -50 6 0 1 14 -11 30 -23 33 -26 34
-35 20z"/>
<path d="M2559 12453 c-13 -15 -12 -15 9 -4 23 12 28 21 13 21 -5 0 -15 -7
-22 -17z"/>
<path d="M3000 12271 c25 -4 63 -11 85 -16 30 -6 37 -5 29 4 -6 7 -44 14 -85
16 -58 3 -64 2 -29 -4z"/>
<path d="M3138 12243 c7 -3 16 -2 19 1 4 3 -2 6 -13 5 -11 0 -14 -3 -6 -6z"/>
<path d="M3205 12215 c10 -8 34 -21 52 -27 18 -7 33 -15 33 -19 0 -4 12 -14
26 -24 l27 -17 -16 22 c-21 30 -75 65 -112 74 -28 6 -29 5 -10 -9z"/>
<path d="M2659 11443 c-39 -9 -34 -119 9 -184 42 -64 48 -52 38 70 -9 109 -14
121 -47 114z"/>
<path d="M2005 10451 c-6 -11 9 -23 19 -14 9 9 7 23 -3 23 -6 0 -12 -4 -16 -9z"/>
<path d="M1785 10208 c3 -57 7 -209 10 -338 6 -225 18 -406 29 -418 3 -2 10 8
17 24 71 186 77 207 67 224 -9 14 -5 26 21 63 28 42 35 46 61 40 32 -6 38 4
20 37 -11 21 -5 62 37 232 15 59 24 110 20 114 -6 6 -74 -53 -116 -98 -8 -10
-21 -18 -28 -18 -12 0 -43 49 -43 70 0 23 -76 169 -88 170 -9 0 -11 -24 -7
-102z"/>
<path d="M2652 9418 c-7 -7 -12 -17 -12 -23 0 -12 -69 -49 -78 -41 -2 3 -16
-1 -31 -9 -54 -30 -91 -77 -91 -115 0 -12 -8 -30 -19 -41 -20 -21 -35 -75 -25
-90 3 -5 14 -9 26 -9 15 0 19 5 15 19 -3 13 6 32 25 53 24 27 31 30 39 18 9
-12 10 -10 6 8 -3 12 -1 20 4 16 5 -3 14 7 19 22 15 40 133 156 142 141 23
-36 -15 -167 -48 -167 -8 0 -14 -6 -14 -14 0 -7 -9 -16 -19 -19 -10 -2 -24
-15 -31 -27 -10 -18 -9 -21 1 -15 8 6 11 4 7 -7 -4 -9 0 -15 8 -15 8 0 14 4
14 9 0 4 5 8 12 8 6 0 20 7 30 17 24 21 35 9 19 -21 -8 -13 -10 -29 -7 -35 4
-6 3 -11 -1 -11 -5 0 -29 -18 -53 -40 -43 -39 -43 -40 -18 -40 15 0 33 7 42
15 8 8 18 15 21 15 7 0 56 50 86 87 22 28 30 51 36 117 10 103 8 128 -16 157
-17 21 -21 22 -37 9 -16 -14 -17 -13 -10 13 5 22 3 27 -12 27 -10 0 -23 -5
-30 -12z m-34 -270 c-2 -6 -10 -14 -16 -16 -7 -2 -10 2 -6 12 7 18 28 22 22 4z"/>
<path d="M2535 9100 c3 -5 8 -10 11 -10 2 0 4 5 4 10 0 6 -5 10 -11 10 -5 0
-7 -4 -4 -10z"/>
<path d="M1880 9060 c0 -24 15 -27 24 -4 9 22 8 24 -9 24 -8 0 -15 -9 -15 -20z"/>
<path d="M2447 9033 c6 -19 32 -43 45 -43 4 0 8 7 8 15 0 8 -4 15 -10 15 -5 0
-10 7 -10 15 0 8 -9 15 -20 15 -14 0 -18 -5 -13 -17z"/>
<path d="M880 8971 c0 -5 -8 -12 -17 -14 -14 -4 -12 -5 5 -6 13 -1 22 5 22 14
0 8 -2 15 -5 15 -3 0 -5 -4 -5 -9z"/>
<path d="M4311 8844 c0 -11 3 -14 6 -6 3 7 2 16 -1 19 -3 4 -6 -2 -5 -13z"/>
<path d="M1498 8803 c7 -3 16 -2 19 1 4 3 -2 6 -13 5 -11 0 -14 -3 -6 -6z"/>
<path d="M1850 8610 c0 -5 5 -10 10 -10 6 0 10 5 10 10 0 6 -4 10 -10 10 -5 0
-10 -4 -10 -10z"/>
<path d="M2388 8588 c6 -8 8 -18 4 -23 -4 -4 2 -5 13 -3 28 5 25 32 -5 36 -20
3 -22 1 -12 -10z"/>
<path d="M3626 8556 c3 -9 11 -16 16 -16 13 0 5 23 -10 28 -7 2 -10 -2 -6 -12z"/>
<path d="M5070 8485 c-7 -14 -17 -25 -22 -25 -8 0 -28 -42 -53 -112 l-14 -37
47 -2 c101 -3 125 0 134 13 12 18 0 89 -19 110 -9 10 -16 31 -15 48 1 25 -3
30 -22 30 -14 0 -28 -10 -36 -25z"/>
<path d="M0 8350 c0 -6 7 -10 15 -10 8 0 15 2 15 4 0 2 -7 6 -15 10 -8 3 -15
1 -15 -4z"/>
<path d="M5144 8265 c-2 -29 12 -32 45 -9 18 13 20 18 10 25 -28 18 -54 10
-55 -16z"/>
<path d="M3475 8260 c-7 -12 -7 -12 26 -14 18 -1 25 2 22 11 -6 15 -39 17 -48
3z"/>
<path d="M3400 8250 c0 -5 5 -10 10 -10 6 0 10 5 10 10 0 6 -4 10 -10 10 -5 0
-10 -4 -10 -10z"/>
<path d="M5065 8229 c-4 -6 -4 -13 -1 -16 3 -3 1 -12 -5 -20 -24 -28 17 -13
46 17 l29 30 -32 0 c-17 0 -34 -5 -37 -11z"/>
<path d="M5168 8053 c-10 -2 -30 -16 -46 -31 -15 -15 -42 -39 -60 -55 -18 -15
-32 -32 -32 -37 0 -15 21 -12 39 5 40 37 89 73 115 86 53 25 42 47 -16 32z"/>
<path d="M5015 8038 c-11 -7 -26 -12 -34 -13 -8 0 -23 -29 -37 -70 l-23 -69
24 28 c14 16 25 34 25 41 0 6 13 21 30 33 29 22 58 62 43 62 -4 0 -17 -6 -28
-12z"/>
<path d="M5425 7980 c-3 -5 -1 -10 4 -10 6 0 11 5 11 10 0 6 -2 10 -4 10 -3 0
-8 -4 -11 -10z"/>
<path d="M5485 7665 c-3 -8 -7 -22 -10 -30 -5 -18 -4 -18 29 -5 16 6 24 15 20
24 -8 21 -34 28 -39 11z"/>
<path d="M5220 7651 c0 -6 5 -13 10 -16 6 -3 10 1 10 9 0 9 -4 16 -10 16 -5 0
-10 -4 -10 -9z"/>
<path d="M5027 7400 c3 -11 9 -20 13 -20 5 0 6 9 3 20 -3 11 -9 20 -13 20 -5
0 -6 -9 -3 -20z"/>
<path d="M1905 7230 c3 -5 8 -10 11 -10 2 0 4 5 4 10 0 6 -5 10 -11 10 -5 0
-7 -4 -4 -10z"/>
<path d="M1927 7138 c-7 -53 8 -118 26 -118 12 0 2 149 -11 162 -5 5 -12 -12
-15 -44z"/>
<path d="M1916 6814 c-4 -9 -4 -19 -1 -22 3 -3 5 0 5 7 0 7 5 9 10 6 6 -3 10
-2 10 4 0 18 -18 21 -24 5z"/>
<path d="M5322 6408 c-7 -7 -12 -16 -12 -22 0 -5 3 -6 6 -3 13 13 62 -33 67
-63 4 -18 13 -30 22 -30 9 0 14 3 12 8 -2 4 -16 33 -32 65 -29 58 -41 67 -63
45z"/>
<path d="M5314 6289 c-11 -19 7 -28 31 -17 14 6 25 14 25 17 0 10 -50 10 -56
0z"/>
<path d="M6420 6210 c0 -5 6 -10 14 -10 8 0 18 5 21 10 3 6 -3 10 -14 10 -12
0 -21 -4 -21 -10z"/>
<path d="M6478 6213 c6 -2 18 -2 25 0 6 3 1 5 -13 5 -14 0 -19 -2 -12 -5z"/>
<path d="M6220 6180 c0 -5 5 -10 10 -10 6 0 10 5 10 10 0 6 -4 10 -10 10 -5 0
-10 -4 -10 -10z"/>
<path d="M4628 5823 c7 -3 16 -2 19 1 4 3 -2 6 -13 5 -11 0 -14 -3 -6 -6z"/>
<path d="M4898 3524 c-5 -4 -8 -16 -8 -28 0 -14 3 -17 11 -9 6 6 9 19 7 28 -1
9 -6 13 -10 9z"/>
<path d="M4850 3345 c0 -8 5 -15 10 -15 6 0 10 7 10 15 0 8 -4 15 -10 15 -5 0
-10 -7 -10 -15z"/>
<path d="M4899 3115 c15 -32 40 -61 41 -48 0 7 -12 25 -26 40 -16 18 -22 21
-15 8z"/>
<path d="M1660 808 c0 -35 3 -100 7 -145 l6 -83 78 0 c65 0 78 3 83 18 10 37
45 189 51 223 6 35 5 36 -27 43 -43 8 -54 -7 -63 -87 -10 -102 -15 -118 -33
-115 -14 3 -17 20 -20 106 l-3 102 -39 0 -40 0 0 -62z"/>
<path d="M1994 708 c3 -78 8 -143 9 -144 1 -1 42 -6 90 -10 l87 -7 0 25 c0 20
-7 26 -42 34 -41 8 -43 11 -43 44 0 32 3 35 33 38 24 2 32 8 32 23 0 14 -7 19
-28 19 -35 0 -52 16 -52 51 0 28 28 47 50 34 5 -3 10 0 10 8 0 17 -42 27 -108
27 l-45 0 7 -142z"/>
<path d="M1493 792 c-7 -4 -9 -13 -5 -19 10 -16 52 -5 52 13 0 15 -27 19 -47
6z"/>
<path d="M2100 775 c0 -8 2 -15 4 -15 2 0 11 -3 20 -6 12 -4 16 0 16 15 0 14
-6 21 -20 21 -11 0 -20 -7 -20 -15z"/>
<path d="M1760 751 c0 -17 2 -31 4 -31 8 0 13 51 5 56 -5 3 -9 -9 -9 -25z"/>
<path d="M1285 743 c-3 -15 -15 -45 -25 -68 -10 -22 -21 -55 -25 -73 -4 -18
-13 -45 -21 -60 -8 -15 -14 -49 -13 -77 0 -44 2 -47 11 -25 6 14 14 34 19 45
14 31 67 210 75 249 7 42 -10 50 -21 9z"/>
<path d="M2236 630 c3 -63 8 -133 13 -155 l7 -40 13 39 c11 33 11 49 -3 110
-9 39 -21 91 -26 116 -7 34 -8 16 -4 -70z"/>
<path d="M1882 710 c0 -14 2 -19 5 -12 2 6 2 18 0 25 -3 6 -5 1 -5 -13z"/>
<path d="M1642 680 c0 -19 2 -27 5 -17 2 9 2 25 0 35 -3 9 -5 1 -5 -18z"/>
<path d="M1456 665 c-3 -9 1 -18 9 -21 23 -9 50 0 53 19 3 13 -3 17 -26 17
-18 0 -32 -6 -36 -15z"/>
<path d="M1860 625 c-7 -30 -11 -57 -8 -60 3 -3 10 20 17 51 7 30 11 57 9 60
-3 2 -11 -21 -18 -51z"/>
<path d="M846 539 c-60 -71 -106 -132 -103 -135 3 -3 22 -1 44 5 61 17 73 14
79 -19 9 -45 25 -25 19 23 -5 36 1 56 45 144 27 56 50 104 50 108 0 24 -41
-14 -134 -126z"/>
<path d="M2116 662 c-15 -14 -4 -32 20 -32 18 0 25 5 22 17 -3 16 -31 26 -42
15z"/>
<path d="M1643 605 c0 -22 2 -30 4 -17 2 12 2 30 0 40 -3 9 -5 -1 -4 -23z"/>
<path d="M2405 526 c0 -52 3 -97 7 -101 8 -8 28 60 28 96 0 23 -25 99 -33 99
-2 0 -3 -42 -2 -94z"/>
<path d="M1670 551 c0 -6 4 -12 9 -16 5 -3 8 -22 5 -43 l-4 -37 11 30 c7 17
16 35 21 42 6 8 3 15 -11 22 -24 13 -31 14 -31 2z"/>
<path d="M1808 550 c-14 -34 -18 -70 -8 -70 15 0 22 23 18 57 -3 18 -6 23 -10
13z"/>
<path d="M1320 530 c-13 -8 -12 -10 3 -10 9 0 17 5 17 10 0 12 -1 12 -20 0z"/>
<path d="M1366 523 c-6 -14 -5 -15 5 -6 7 7 10 15 7 18 -3 3 -9 -2 -12 -12z"/>
<path d="M1391 516 c-13 -13 -38 -27 -57 -30 -41 -8 -44 -21 -8 -30 17 -5 32
-2 43 9 18 15 31 11 31 -11 0 -6 -6 -11 -12 -10 -7 0 -13 -3 -13 -9 0 -5 4 -9
9 -7 4 1 14 -5 21 -14 8 -12 18 -15 31 -10 18 7 18 8 2 17 -13 7 -16 17 -11
39 4 20 2 30 -7 30 -8 0 -10 8 -6 25 8 31 5 31 -23 1z"/>
<path d="M1434 529 c-4 -7 0 -17 8 -23 11 -8 13 -18 7 -36 -9 -24 -8 -24 6 -6
19 25 19 50 1 65 -11 9 -16 9 -22 0z"/>
<path d="M2000 495 c0 -25 5 -45 10 -45 6 0 10 6 10 14 0 7 3 28 6 45 5 24 3
31 -10 31 -12 0 -16 -10 -16 -45z"/>
<path d="M2080 517 c0 -13 5 -17 16 -13 9 3 22 6 30 6 27 0 14 18 -16 22 -25
4 -30 1 -30 -15z"/>
<path d="M3900 505 c0 -46 14 -46 17 0 1 19 -3 35 -8 35 -5 0 -9 -16 -9 -35z"/>
<path d="M2046 495 c-4 -22 -14 -51 -23 -64 -15 -24 -15 -24 8 -7 13 9 40 16
59 16 25 0 43 7 58 23 25 26 31 57 8 38 -7 -6 -31 -12 -52 -14 -33 -2 -38 1
-44 23 -6 22 -7 21 -14 -15z"/>
<path d="M2460 506 c0 -14 5 -26 10 -26 6 0 10 -8 10 -17 0 -12 9 -7 30 17 32
35 37 46 19 34 -6 -3 -16 0 -21 7 -7 10 -7 7 -3 -8 5 -17 2 -23 -9 -23 -9 0
-16 6 -16 14 0 8 -4 18 -10 21 -6 4 -10 -5 -10 -19z"/>
<path d="M1763 513 c-15 -5 -18 -43 -4 -43 9 0 26 39 19 44 -1 2 -9 1 -15 -1z"/>
<path d="M2303 507 c3 -8 2 -19 -3 -26 -4 -8 2 -23 17 -39 23 -25 24 -25 38
-6 20 26 19 31 -7 30 -18 -1 -24 5 -26 27 -2 15 -8 27 -14 27 -5 0 -8 -6 -5
-13z"/>
<path d="M3941 494 c0 -11 3 -14 6 -6 3 7 2 16 -1 19 -3 4 -6 -2 -5 -13z"/>
<path d="M1718 494 c-5 -4 -8 -17 -8 -30 0 -22 17 -34 48 -34 13 0 12 3 -5 15
-12 8 -23 25 -25 36 -2 12 -6 17 -10 13z"/>
<path d="M1121 483 c-1 -7 -7 -11 -13 -9 -7 1 -10 1 -5 -1 15 -9 6 -42 -17
-64 -30 -28 -24 -45 8 -24 30 20 44 54 35 85 -4 14 -7 20 -8 13z"/>
<path d="M1057 473 c-11 -10 -8 -43 3 -43 6 0 10 4 10 9 0 5 3 16 6 25 6 16
-7 22 -19 9z"/>
<path d="M1156 471 c-4 -5 -1 -11 6 -13 14 -5 4 -20 -50 -74 -29 -30 -31 -34
-13 -34 11 0 23 5 26 10 4 6 12 10 18 9 24 -3 37 1 37 12 0 6 -7 9 -15 5 -8
-3 -15 -1 -15 3 0 5 7 11 15 15 9 3 15 19 15 41 0 33 -12 46 -24 26z"/>
<path d="M900 440 c0 -5 4 -10 9 -10 6 0 13 5 16 10 3 6 -1 10 -9 10 -9 0 -16
-4 -16 -10z"/>
<path d="M2447 443 c-4 -3 -7 -19 -7 -35 0 -21 5 -28 20 -28 27 0 38 30 16 42
-9 5 -14 13 -11 19 7 10 -8 12 -18 2z"/>
<path d="M946 428 c-14 -39 -13 -45 5 -56 16 -10 19 -9 18 5 -1 10 -4 29 -9
43 -6 21 -8 22 -14 8z"/>
<path d="M1305 430 c-3 -5 1 -10 9 -10 9 0 16 5 16 10 0 6 -4 10 -9 10 -6 0
-13 -4 -16 -10z"/>
<path d="M2287 433 c-12 -11 -8 -23 8 -23 8 0 15 7 15 15 0 16 -12 20 -23 8z"/>
<path d="M1477 423 c-4 -3 -7 -11 -7 -17 0 -6 5 -5 12 2 6 6 9 14 7 17 -3 3
-9 2 -12 -2z"/>
<path d="M2090 419 c-25 -3 -39 -7 -32 -7 6 -1 12 -9 12 -17 0 -12 4 -13 19
-5 11 5 31 10 45 10 27 0 36 15 14 22 -7 2 -33 1 -58 -3z"/>
<path d="M755 322 c-45 -37 -97 -80 -117 -97 l-35 -30 16 -95 17 -95 42 -3 42
-3 -6 38 c-5 35 -2 41 41 83 44 43 47 44 61 26 8 -11 14 -31 14 -45 0 -25 0
-25 30 9 28 32 30 39 25 90 -6 66 -35 190 -44 190 -3 -1 -42 -31 -86 -68z"/>
<path d="M905 368 c-9 -34 1 -66 16 -51 7 7 7 22 1 44 l-9 34 -8 -27z"/>
<path d="M702 360 c-12 -12 -22 -25 -22 -30 0 -4 -3 -15 -6 -24 -13 -34 15
-14 35 25 26 48 23 57 -7 29z"/>
<path d="M945 339 c-4 -6 -5 -12 -2 -15 2 -3 7 2 10 11 7 17 1 20 -8 4z"/>
<path d="M615 299 c-26 -17 -27 -19 -9 -19 12 0 27 7 34 15 19 23 9 25 -25 4z"/>
<path d="M1473 298 c-155 -6 -406 -44 -513 -78 -42 -13 -55 -21 -55 -36 1 -11
7 -18 15 -15 69 16 312 62 380 71 109 15 484 16 617 1 111 -12 704 -16 747 -5
24 6 26 4 24 -23 -1 -18 7 -43 22 -63 l24 -34 29 65 c16 35 33 74 38 87 l9 22
-253 -7 c-330 -10 -439 -9 -632 5 -217 17 -275 18 -452 10z"/>
<path d="M7090 303 c-19 -3 -39 -9 -44 -14 -6 -5 -29 -9 -53 -9 -32 0 -43 -4
-43 -15 0 -8 -7 -15 -16 -15 -8 0 -12 5 -9 10 9 15 -57 12 -161 -5 -107 -19
-294 -43 -424 -56 -52 -5 -117 -13 -145 -18 -27 -6 -80 -13 -117 -17 -38 -3
-68 -10 -68 -14 0 -12 43 -102 62 -128 l16 -24 204 7 c111 3 217 5 233 5 17
-1 169 -3 339 -6 227 -3 312 -1 322 7 11 9 14 39 13 129 l-2 118 -31 11 -31
10 33 -3 c37 -3 45 18 10 28 -23 6 -27 6 -88 -1z m-110 -43 c0 -5 -4 -10 -10
-10 -5 0 -10 5 -10 10 0 6 5 10 10 10 6 0 10 -4 10 -10z m149 -31 c-7 -4 -17
-5 -22 -2 -5 3 -3 9 4 14 7 4 17 5 22 2 5 -3 3 -9 -4 -14z m-60 -9 c-9 -5 -50
-12 -90 -15 -70 -5 -72 -4 -44 9 34 17 161 22 134 6z m-221 -27 c-10 -2 -26
-2 -35 0 -10 3 -2 5 17 5 19 0 27 -2 18 -5z m-485 -30 c-7 -2 -21 -2 -30 0
-10 3 -4 5 12 5 17 0 24 -2 18 -5z m656 -78 c-3 -2 -27 -7 -54 -10 -28 -4 -79
-12 -115 -20 -74 -15 -93 -12 -30 5 89 24 213 40 199 25z m116 -15 c-11 -5
-29 -8 -40 -8 -16 0 -15 2 5 8 34 11 60 11 35 0z m-740 -9 c-11 -5 -72 -16
-135 -25 -63 -10 -123 -20 -134 -23 -12 -3 -17 -1 -14 8 3 8 28 17 59 22 179
26 262 33 224 18z m672 3 c-3 -3 -12 -4 -19 -1 -8 3 -5 6 6 6 11 1 17 -2 13
-5z"/>
<path d="M621 261 c-8 -5 -9 -11 -3 -15 5 -3 15 1 22 9 14 16 3 20 -19 6z"/>
<path d="M534 245 c-16 -12 -16 -14 -3 -15 9 0 22 7 29 15 16 19 0 19 -26 0z"/>
<path d="M590 230 c0 -5 5 -10 11 -10 5 0 7 5 4 10 -3 6 -8 10 -11 10 -2 0 -4
-4 -4 -10z"/>
<path d="M1597 234 c-1 -1 -68 -4 -148 -8 -146 -6 -181 -10 -357 -43 -86 -16
-93 -19 -97 -43 -3 -14 -9 -42 -14 -63 -5 -20 -6 -39 -2 -41 3 -2 31 1 61 6
30 6 73 11 95 12 37 1 40 -1 43 -26 l3 -28 94 0 95 0 6 28 c12 50 19 52 144
52 l117 0 7 37 c3 21 6 56 6 78 0 36 -2 40 -26 40 -14 0 -26 -1 -27 -1z"/>
<path d="M1735 169 c-8 -66 -17 -80 -74 -105 -26 -11 -41 -25 -44 -41 -4 -24
-4 -24 71 -21 l74 3 20 63 c10 34 22 62 27 62 13 0 175 -100 187 -115 12 -16
84 -21 84 -6 0 5 -7 37 -16 71 -8 34 -13 68 -10 76 10 27 -65 54 -166 60 -51
3 -105 7 -120 9 -25 4 -26 2 -33 -56z"/>
<path d="M490 200 c0 -5 11 -10 25 -10 14 0 25 5 25 10 0 6 -11 10 -25 10 -14
0 -25 -4 -25 -10z"/>
<path d="M1687 203 c-4 -3 -7 -11 -7 -17 0 -6 5 -5 12 2 6 6 9 14 7 17 -3 3
-9 2 -12 -2z"/>
<path d="M2142 202 c-17 -3 -22 -9 -19 -20 2 -9 15 -54 27 -99 l23 -83 114 0
c62 0 113 4 113 9 0 5 -15 42 -34 83 -18 40 -36 81 -39 90 -5 13 -22 17 -84
20 -43 2 -89 2 -101 0z"/>
<path d="M2367 192 c-25 -27 -21 -35 8 -16 25 16 33 34 17 34 -5 0 -16 -8 -25
-18z"/>
<path d="M2425 183 c-15 -23 -15 -25 -2 -20 10 4 20 -1 26 -11 14 -25 24 -8
16 27 -8 38 -18 39 -40 4z"/>
<path d="M2581 114 c41 -77 49 -98 38 -105 -9 -5 22 -9 80 -9 l93 0 -15 23
c-9 12 -40 59 -69 104 l-53 82 -63 1 -63 0 52 -96z"/>
<path d="M2080 186 c0 -8 5 -18 10 -21 6 -3 10 3 10 14 0 12 -4 21 -10 21 -5
0 -10 -6 -10 -14z"/>
<path d="M2512 180 c0 -14 2 -19 5 -12 2 6 2 18 0 25 -3 6 -5 1 -5 -13z"/>
<path d="M1695 170 c-3 -5 -1 -10 4 -10 6 0 11 5 11 10 0 6 -2 10 -4 10 -3 0
-8 -4 -11 -10z"/>
<path d="M490 150 c0 -5 4 -10 9 -10 6 0 13 5 16 10 3 6 -1 10 -9 10 -9 0 -16
-4 -16 -10z"/>
<path d="M524 143 c-10 -16 -15 -16 -34 -5 -22 13 -60 8 -60 -9 0 -5 11 -9 25
-9 14 0 28 -6 31 -14 7 -19 -13 -56 -31 -56 -20 0 -19 -16 1 -24 19 -7 34 10
65 71 21 44 23 77 3 46z"/>
<path d="M883 107 c-32 -31 -77 -63 -100 -72 -24 -10 -43 -21 -43 -26 0 -5 94
-9 211 -9 195 0 210 1 207 17 -4 21 -37 21 -162 -3 l-38 -7 7 64 c4 35 8 68 9
73 0 6 -7 12 -16 14 -11 2 -40 -17 -75 -51z"/>
<path d="M2366 152 c-3 -5 4 -28 16 -51 l21 -42 17 38 c18 40 17 54 -2 35 -18
-18 -28 -15 -28 8 0 20 -14 27 -24 12z"/>
<path d="M562 104 c-8 -28 -17 -44 -25 -41 -6 2 -20 -9 -29 -25 -23 -37 -23
-38 6 -38 27 0 42 15 26 25 -15 9 -12 25 4 25 8 0 17 13 21 30 4 16 11 30 16
30 13 0 11 -17 -6 -50 -16 -31 -9 -40 13 -18 14 14 16 64 2 73 -5 3 -7 12 -3
20 3 8 1 15 -4 15 -5 0 -14 -21 -21 -46z"/>
<path d="M1665 141 c-3 -5 -1 -12 5 -16 5 -3 10 1 10 9 0 18 -6 21 -15 7z"/>
<path d="M761 104 c-17 -14 -31 -34 -31 -45 0 -23 1 -23 45 -5 27 12 35 21 35
40 0 36 -14 39 -49 10z"/>
<path d="M2544 117 c3 -10 6 -24 6 -30 0 -8 4 -7 12 1 10 9 8 16 -6 30 -18 16
-19 16 -12 -1z"/>
<path d="M4608 123 c7 -3 16 -2 19 1 4 3 -2 6 -13 5 -11 0 -14 -3 -6 -6z"/>
<path d="M417 103 c-2 -2 -2 -14 1 -28 4 -23 5 -23 28 -8 13 8 24 19 24 23 0
8 -47 20 -53 13z"/>
<path d="M2437 103 c-4 -3 -7 -11 -7 -17 0 -6 5 -5 12 2 6 6 9 14 7 17 -3 3
-9 2 -12 -2z"/>
<path d="M1810 85 c0 -14 12 -19 33 -16 4 0 7 -4 7 -11 0 -6 3 -9 6 -6 3 4 1
16 -6 27 -12 24 -40 28 -40 6z"/>
<path d="M2090 91 c0 -5 3 -17 6 -26 5 -13 8 -14 15 -3 13 20 11 38 -6 38 -8
0 -15 -4 -15 -9z"/>
<path d="M2570 66 c0 -9 5 -16 10 -16 6 0 10 4 10 9 0 6 -4 13 -10 16 -5 3
-10 -1 -10 -9z"/>
<path d="M2530 56 c0 -9 7 -16 16 -16 9 0 14 5 12 12 -6 18 -28 21 -28 4z"/>
<path d="M1528 53 c-43 -4 -48 -7 -48 -29 0 -22 3 -24 54 -24 46 0 56 3 61 20
6 20 -1 41 -13 38 -4 -1 -28 -3 -54 -5z"/>
<path d="M1876 34 c-4 -15 -5 -28 -3 -31 3 -2 29 -3 58 -1 l54 3 -47 28 c-26
15 -49 27 -51 27 -3 0 -8 -12 -11 -26z"/>
<path d="M2117 32 c-23 -25 -21 -32 9 -32 22 0 24 2 14 15 -6 8 -9 19 -5 25
10 16 0 12 -18 -8z"/>
<path d="M1450 30 c0 -5 -11 -10 -25 -10 -14 0 -25 -4 -25 -10 0 -5 14 -10 30
-10 23 0 30 4 30 20 0 11 -2 20 -5 20 -3 0 -5 -4 -5 -10z"/>
<path d="M1797 33 c-4 -3 -7 -13 -7 -22 1 -13 3 -13 11 2 11 19 8 33 -4 20z"/>
<path d="M2420 20 c0 -17 5 -21 28 -18 16 2 27 9 27 18 0 9 -11 16 -27 18 -23
3 -28 -1 -28 -18z"/>
<path d="M1826 23 c-11 -11 -6 -23 9 -23 8 0 15 4 15 9 0 13 -16 22 -24 14z"/>
<path d="M2535 20 c3 -5 11 -10 16 -10 6 0 7 5 4 10 -3 6 -11 10 -16 10 -6 0
-7 -4 -4 -10z"/>
</g>
</svg>
